<?xml version="1.0" standalone="no"?>
<!DOCTYPE svg PUBLIC "-//W3C//DTD SVG 20010904//EN"
 "http://www.w3.org/TR/2001/REC-SVG-20010904/DTD/svg10.dtd">
<svg version="1.0" xmlns="http://www.w3.org/2000/svg"
 width="768.000000pt" height="768.000000pt" viewBox="0 0 768.000000 768.000000"
 preserveAspectRatio="xMidYMid meet">

<g transform="translate(0.000000,768.000000) scale(0.100000,-0.100000)"
fill="#000000" stroke="none">
<path d="M320 7673 c0 -4 23 -31 51 -59 l52 -52 -22 -28 c-22 -28 -27 -44 -13
-44 5 0 35 26 68 58 32 31 79 74 104 94 l45 38 -30 0 c-23 0 -41 -10 -70 -40
-21 -22 -46 -40 -55 -40 -9 0 -34 18 -55 40 -34 35 -75 53 -75 33z"/>
<path d="M699 7668 c-4 -57 6 -109 28 -146 13 -24 22 -49 20 -56 -5 -13 -351
-306 -362 -306 -3 0 -39 29 -79 64 -118 103 -104 103 -213 -6 l-94 -94 81 -79
c44 -44 80 -85 80 -93 0 -8 -13 -31 -29 -51 -36 -45 -131 -199 -131 -212 0 -5
8 -9 18 -9 11 1 50 50 108 137 l92 136 -85 81 -85 80 44 40 c23 22 60 55 80
74 l37 35 35 -27 c20 -15 74 -63 121 -108 47 -45 101 -93 120 -107 19 -14 34
-29 35 -32 0 -9 -147 -235 -205 -314 -146 -199 -315 -469 -315 -502 0 -23 7
-16 46 43 65 97 185 263 193 268 3 2 25 -9 49 -25 75 -51 86 -32 17 28 l-45
39 48 75 c26 42 60 91 75 109 32 37 22 41 123 -53 l52 -49 -40 -64 c-38 -60
-43 -65 -69 -59 -42 10 -29 -15 29 -53 26 -17 65 -46 86 -65 l39 -34 -28 -37
c-15 -20 -29 -36 -32 -36 -3 0 -31 21 -64 47 -44 34 -63 43 -71 35 -14 -14 65
-98 83 -86 7 4 10 3 5 -4 -3 -6 1 -17 10 -26 14 -15 13 -19 -6 -46 -12 -16
-24 -30 -27 -30 -3 0 -32 25 -65 55 -32 30 -62 55 -66 55 -4 0 -27 -33 -52
-73 -24 -39 -55 -82 -67 -95 -13 -13 -44 -56 -70 -95 -26 -40 -48 -74 -49 -76
-2 -2 -10 -1 -19 3 -14 5 -12 14 16 63 17 32 47 81 67 110 33 50 38 90 9 81
-24 -8 -184 -268 -165 -268 6 0 26 -9 44 -21 l34 -21 -40 -77 c-22 -43 -40
-81 -40 -84 0 -4 40 -7 89 -7 l89 0 56 116 c31 64 76 145 100 180 29 40 43 71
40 82 -5 13 -4 14 4 3 8 -11 12 -10 21 7 9 17 8 19 -9 15 -10 -3 -26 -14 -36
-24 -21 -23 -40 -24 -60 -4 -13 12 -12 20 11 65 14 27 32 50 39 50 18 0 96
-88 96 -107 0 -8 -14 -46 -31 -86 -54 -125 -60 -147 -44 -147 9 0 35 43 64
104 44 93 52 105 73 102 13 -1 30 -6 38 -11 13 -8 13 -6 0 11 -7 10 -21 25
-29 31 -15 13 -14 18 22 79 l13 22 32 -27 33 -26 -36 -85 c-65 -151 -107 -271
-101 -287 9 -24 20 -8 51 77 15 41 50 126 78 188 l50 114 -42 40 c-22 22 -41
45 -41 50 0 5 12 25 27 44 l26 35 32 -31 c17 -16 35 -30 40 -30 6 1 22 19 37
40 32 46 46 49 84 17 l27 -23 -71 -135 c-221 -420 -313 -810 -314 -1326 0
-252 18 -349 103 -581 27 -74 49 -147 49 -162 0 -28 -30 -60 -56 -60 -17 0
-99 193 -139 330 -38 127 -64 289 -66 405 0 39 -4 79 -8 90 -7 17 -8 17 -15
-8 -9 -36 10 -229 35 -352 19 -95 90 -319 131 -415 11 -25 35 -87 54 -139 19
-52 39 -100 46 -108 6 -7 8 -16 5 -19 -12 -12 -106 148 -136 232 -18 48 -54
176 -81 283 -27 108 -61 229 -75 268 -28 82 -47 195 -44 265 2 40 -1 51 -24
72 -16 15 -27 36 -27 51 0 26 -33 79 -42 69 -3 -3 -19 8 -34 24 -33 33 -64
119 -64 179 0 41 31 146 37 126 2 -6 13 -8 25 -5 16 4 19 2 13 -8 -5 -8 -4
-11 1 -7 6 3 28 8 51 10 37 5 40 3 36 -16 -11 -51 -27 -93 -37 -99 -8 -6 -7
-10 2 -16 10 -7 9 -23 -3 -82 -14 -68 -14 -92 1 -77 4 4 10 28 15 55 4 26 17
79 28 118 l22 70 46 3 46 2 -6 -80 c-3 -45 -1 -81 3 -81 10 0 14 19 36 160 9
58 27 155 41 215 41 180 44 161 -21 180 -77 23 -98 18 -109 -25 -4 -19 -13
-51 -18 -72 l-9 -36 -58 4 c-183 12 -222 12 -222 0 0 -10 36 -15 132 -20 73
-4 137 -11 144 -17 9 -7 8 -23 -2 -65 -13 -55 -24 -80 -24 -53 0 11 -16 14
-71 12 -39 -1 -74 -4 -77 -8 -4 -3 -18 -41 -32 -83 -20 -63 -29 -78 -47 -80
l-23 -3 0 -970 0 -969 313 0 c455 0 1167 13 1132 20 -39 8 -66 23 -89 49 -11
12 -25 21 -33 21 -14 0 -49 18 -138 71 -27 17 -40 27 -28 24 15 -4 28 0 40 14
17 20 28 21 273 22 253 2 618 14 508 17 -43 2 -58 6 -58 16 0 8 10 16 23 18
12 2 -82 9 -209 16 -214 11 -321 27 -363 52 -12 8 -6 9 20 4 24 -4 47 0 67 10
35 18 62 21 62 7 0 -6 -15 -12 -32 -14 -30 -3 -29 -4 8 -5 40 -2 40 -1 36 28
-3 18 0 30 7 30 6 0 11 -7 11 -16 0 -8 4 -13 8 -10 5 3 7 18 6 35 -1 20 2 28
11 25 7 -3 11 -14 8 -25 -3 -10 -1 -19 5 -19 5 0 12 9 15 20 6 25 -40 73 -62
65 -14 -5 -14 -4 1 11 15 16 18 15 47 -5 17 -12 31 -18 31 -12 0 6 -4 11 -8
11 -5 0 -17 7 -28 15 -14 11 -15 15 -4 14 29 -3 41 1 35 11 -3 6 -1 10 5 10 7
0 9 -8 5 -20 -4 -14 -2 -20 8 -20 10 0 13 9 10 28 -3 23 -2 24 6 7 5 -11 10
-14 10 -7 1 6 5 12 11 12 5 0 7 -6 5 -12 -4 -9 9 -13 44 -13 27 0 47 3 44 8
-2 4 5 7 16 7 12 0 21 -7 21 -16 0 -8 5 -12 10 -9 6 4 8 10 5 15 -3 5 0 12 6
16 7 4 9 3 6 -2 -3 -6 -2 -16 4 -24 5 -8 9 -10 9 -4 0 8 59 12 203 12 111 1
239 5 284 9 70 7 84 6 89 -7 5 -11 9 -9 14 10 7 21 8 19 9 -16 1 -53 -27 -89
-80 -105 -41 -13 -52 -29 -19 -29 21 0 28 -19 8 -21 -7 0 -22 -2 -33 -4 -11
-3 -35 0 -52 5 -20 5 -33 5 -33 -1 0 -14 61 -41 81 -36 14 4 19 0 19 -14 0
-16 -7 -19 -40 -19 -43 0 -45 -2 -30 -31 7 -12 21 -19 40 -19 19 0 30 -5 30
-14 0 -18 -100 -40 -144 -32 l-31 6 47 -47 c35 -36 48 -59 53 -90 l7 -43 433
0 c238 0 446 3 463 6 28 6 31 11 37 55 6 42 13 55 46 81 42 34 52 56 18 37
-14 -7 -47 -9 -95 -4 -73 7 -90 16 -56 31 14 6 12 8 -13 14 l-30 8 36 1 c20 0
47 9 59 19 22 18 22 18 -17 14 -42 -4 -99 12 -73 21 8 3 27 8 42 11 27 6 88
51 88 66 0 4 -18 -1 -40 -12 -28 -14 -49 -18 -71 -13 l-31 7 27 18 c28 18 26
23 -15 34 -37 9 -76 48 -83 82 -3 16 -4 23 -1 17 3 -7 12 -13 19 -13 8 0 17
-5 21 -12 5 -8 2 -9 -9 -5 -10 3 -17 3 -17 -2 0 -5 19 -8 43 -8 23 1 107 -10
187 -23 122 -19 183 -23 382 -24 131 -1 238 -5 238 -9 0 -5 4 -6 9 -2 15 9 21
-9 13 -40 -6 -23 -17 -31 -62 -45 -96 -30 -140 -61 -140 -99 0 -17 59 -49 102
-56 36 -6 38 -8 38 -45 0 -25 5 -40 16 -44 33 -13 -12 -77 -77 -111 -33 -18
-99 -91 -99 -110 0 -13 -68 -15 -542 -16 -299 -1 -779 -5 -1068 -8 -512 -7
-516 -7 -175 -9 335 -2 455 -12 314 -26 -35 -3 -540 -9 -1122 -12 l-1057 -7 0
-178 0 -179 550 0 c528 0 550 1 550 18 0 17 12 20 122 25 66 4 313 7 548 7
l427 0 22 24 c12 13 42 29 66 35 68 17 1275 15 1275 -2 0 -20 -39 -194 -61
-276 l-21 -74 55 -56 c47 -47 55 -60 50 -84 -3 -15 -1 -33 5 -40 7 -8 5 -69
-4 -187 -7 -96 -13 -206 -14 -243 l0 -68 37 -15 c20 -9 66 -21 103 -26 67 -11
80 -19 80 -52 0 -11 11 -31 24 -45 19 -20 22 -31 15 -48 l-8 -23 -353 -2 -353
-3 348 -2 c343 -3 347 -3 335 -23 -12 -19 -25 -20 -323 -21 -346 -2 -302 -13
97 -25 123 -3 215 -10 212 -15 -3 -5 -50 -9 -105 -9 -79 0 -99 -3 -99 -14 0
-10 -13 -16 -37 -19 -21 -2 27 -5 107 -7 127 -4 133 -5 51 -7 -52 -2 -100 -8
-106 -13 -7 -6 -10 -32 -8 -65 l3 -55 -1432 -3 -1433 -2 1432 -3 1432 -2 -2
-47 -2 -48 -65 -6 -65 -6 68 -1 c37 -1 67 -6 67 -12 0 -7 123 -9 362 -8 l362
3 -3 68 -2 67 980 -2 980 -3 -22 25 c-12 14 -28 31 -36 37 -21 18 -16 124 6
138 121 75 128 82 167 164 26 54 54 95 86 125 39 37 47 49 42 71 -4 26 -6 26
-56 20 -70 -10 -101 -28 -171 -100 -77 -79 -98 -92 -167 -100 l-56 -7 0 196
-1 196 410 0 410 0 135 136 c131 131 136 135 164 126 16 -6 38 -8 49 -5 12 3
21 1 21 -5 0 -5 -10 -12 -22 -15 -13 -2 -32 -8 -43 -13 -19 -7 -19 -6 -5 12
14 17 14 18 -2 6 -9 -8 -15 -19 -12 -26 9 -23 -54 -102 -96 -121 -39 -18 -51
-37 -29 -50 6 -4 8 -13 5 -21 -6 -16 34 -20 50 -4 6 6 22 6 44 0 49 -14 50
-13 50 20 0 27 32 70 52 70 5 0 50 42 101 94 63 64 101 95 122 99 17 3 72 3
123 0 l92 -6 0 82 0 83 -661 -8 -660 -7 21 36 c34 57 17 61 -66 16 -75 -41
-157 -69 -205 -69 -20 0 -30 7 -39 30 -7 17 -14 30 -15 30 -1 0 -18 -6 -36
-14 -26 -10 -141 -16 -484 -22 -247 -5 -522 -9 -611 -9 l-161 0 -37 29 c-21
15 -38 26 -40 25 -45 -72 -121 -134 -246 -201 -76 -41 -86 -61 -38 -77 27 -9
185 -31 223 -31 6 0 9 -90 7 -255 l-3 -255 -82 41 c-45 23 -85 46 -89 52 -15
25 -27 -20 -35 -135 -4 -53 0 -76 16 -113 11 -25 18 -52 14 -60 -3 -10 -1 -13
9 -10 10 4 25 -12 46 -45 37 -59 37 -58 14 -87 -15 -19 -29 -22 -114 -25 -54
-2 -98 0 -98 4 0 4 -10 8 -22 9 -22 1 -22 1 2 8 16 4 25 14 25 26 0 18 -9 21
-80 25 -73 5 -64 6 95 16 147 9 160 11 83 12 -75 2 -93 5 -93 17 0 12 -17 15
-82 17 -73 1 -65 3 60 11 78 5 142 13 142 16 0 4 -21 7 -47 7 -27 -1 -83 0
-126 2 -74 2 -77 3 -65 22 8 13 26 20 58 23 40 3 38 4 -16 5 -54 2 -62 5 -82
31 -20 27 -20 32 -7 58 8 15 15 36 15 45 0 43 9 48 89 48 l78 0 -9 57 c-5 32
-16 93 -24 136 -15 78 -13 97 9 97 7 0 22 7 34 15 18 13 21 20 13 40 -10 26
-50 250 -50 278 0 9 20 28 45 43 50 29 53 35 28 55 -16 13 -17 12 -4 -3 8 -12
9 -18 2 -18 -22 0 -51 82 -66 187 -9 59 -18 123 -21 141 l-5 32 103 -1 c57 0
153 -4 213 -9 61 -5 371 -12 690 -15 319 -3 609 -7 645 -10 45 -4 60 -2 50 5
-9 6 -121 10 -282 10 -158 0 -269 4 -273 10 -3 5 -163 9 -406 9 -220 0 -405 3
-410 7 -6 3 -82 6 -169 5 l-159 -1 -6 58 c-3 31 -11 79 -16 106 -5 27 -8 50
-7 51 2 2 10 -12 19 -31 9 -18 12 -31 7 -27 -9 5 -2 -35 8 -46 2 -2 200 2 441
9 649 19 911 19 923 0 7 -10 10 -11 10 -2 0 6 5 12 10 12 6 0 9 -3 9 -7 -1 -5
-1 -20 0 -35 1 -39 31 -26 31 14 0 40 32 35 37 -7 3 -16 7 -32 9 -35 13 -12
234 -18 537 -14 218 3 327 1 327 -5 0 -7 -146 -11 -432 -11 -237 0 -434 -2
-436 -5 -3 -3 36 -5 87 -5 59 0 90 -4 86 -10 -4 -6 7 -10 24 -10 17 0 31 5 31
10 0 6 9 10 21 10 11 0 17 -4 14 -10 -4 -6 14 -11 47 -12 50 -1 51 -2 11 -5
-70 -7 -49 -18 29 -16 l73 1 -80 -12 c-80 -13 -80 -13 105 -13 140 1 166 2
105 8 -59 5 -34 6 92 5 156 -1 197 -6 181 -22 -3 -3 -316 -4 -694 -2 -379 1
-764 2 -856 3 -91 0 -165 2 -163 5 2 3 -15 6 -38 6 -33 1 -9 -10 113 -50 85
-29 171 -61 190 -71 34 -19 77 -19 1288 -23 l1252 -4 0 1447 c0 1283 -2 1448
-15 1462 -9 8 -23 12 -33 8 -9 -3 -65 -9 -124 -12 l-107 -5 -14 48 c-8 27 -13
52 -10 57 2 4 23 7 46 8 80 1 80 0 32 129 -23 63 -52 137 -65 163 -12 26 -21
49 -19 50 37 26 64 38 66 30 2 -6 9 -18 16 -27 12 -17 14 -17 28 0 12 16 12
17 -2 12 -13 -5 -16 -2 -12 13 4 15 2 18 -11 13 -11 -4 -16 -1 -16 10 0 21
-96 187 -107 186 -4 -1 -36 -29 -71 -62 -35 -33 -56 -58 -47 -55 11 5 26 -10
52 -48 19 -30 40 -55 46 -55 6 0 8 -3 4 -6 -3 -3 8 -27 24 -52 27 -42 109
-238 109 -260 0 -10 -87 -25 -99 -17 -5 2 -18 39 -30 82 -13 43 -47 137 -76
208 -29 72 -56 150 -59 174 -7 43 -5 46 40 92 27 28 42 49 35 53 -15 10 -53
-13 -45 -26 4 -7 3 -8 -4 -4 -7 4 -29 -4 -49 -18 l-38 -26 -18 36 c-13 26 -15
39 -7 49 6 7 62 39 126 71 108 54 132 70 122 79 -5 6 -95 -19 -142 -40 l-38
-16 -29 33 c-15 18 -33 43 -40 56 -12 21 -10 25 17 47 16 13 32 24 36 25 3 0
20 -23 37 -50 45 -73 59 -52 16 24 -19 35 -35 65 -35 69 0 3 29 26 65 52 l66
46 19 -23 c10 -13 24 -34 31 -48 7 -14 40 -58 72 -99 l59 -73 -43 -44 c-47
-48 -37 -54 33 -19 21 10 39 17 41 14 1 -2 40 -59 85 -127 61 -92 82 -116 82
-98 0 46 -136 258 -423 660 -27 38 -51 74 -53 80 -6 15 178 181 275 248 l74
52 54 -58 c29 -31 53 -60 53 -64 0 -4 -28 -40 -63 -81 -34 -40 -66 -79 -71
-85 -6 -8 19 -59 70 -146 73 -123 79 -131 82 -100 3 24 -10 56 -53 132 l-56
100 56 63 c50 57 55 68 55 109 0 42 -6 53 -66 125 l-66 79 -100 -81 c-54 -45
-103 -83 -107 -85 -7 -2 -341 304 -341 313 0 1 9 22 19 46 11 24 21 69 23 99
3 51 1 55 -20 58 -22 3 -23 2 -16 -47 6 -45 3 -56 -26 -107 l-32 -58 176 -169
c97 -93 176 -173 176 -178 0 -13 -112 -118 -125 -119 -6 0 -94 81 -195 180
-102 99 -190 180 -196 180 -5 0 -26 -16 -45 -36 -18 -19 -64 -61 -101 -92 -38
-31 -68 -59 -68 -62 0 -4 32 -39 71 -79 53 -54 68 -75 59 -81 -8 -5 -15 -15
-16 -24 -2 -12 4 -14 23 -10 18 5 31 0 53 -21 16 -15 26 -33 23 -41 -2 -7 -1
-20 5 -29 7 -14 18 -9 69 39 l60 55 84 -70 c46 -39 88 -75 93 -80 11 -10 -84
-109 -105 -109 -11 0 -11 2 -2 8 9 6 -2 26 -37 69 -27 33 -56 63 -64 66 -10 4
-28 -9 -53 -38 -20 -25 -40 -45 -44 -45 -4 0 -12 12 -18 28 -14 32 -98 123
-117 126 -7 1 -21 11 -31 22 -10 11 -31 29 -46 41 l-28 21 32 36 c20 23 26 37
18 37 -8 1 -21 2 -29 3 -14 1 -118 76 -119 86 -1 3 53 61 119 128 66 68 120
129 120 135 0 7 -78 63 -174 125 -160 103 -178 112 -222 112 l-48 0 77 -50
c42 -28 79 -55 83 -61 3 -6 -5 -23 -19 -37 -13 -15 -32 -40 -42 -55 -15 -23
-23 -27 -43 -22 -34 8 -73 35 -66 46 3 5 -1 6 -9 3 -8 -3 -18 0 -23 7 -5 8 -3
10 6 4 9 -5 11 -4 6 4 -4 6 -15 10 -24 9 -9 -2 -17 2 -17 9 0 7 -6 18 -12 24
-10 10 -16 9 -28 -7 -8 -10 -15 -22 -15 -26 0 -9 89 -73 178 -127 103 -62 162
-104 159 -114 -1 -5 -15 -16 -30 -25 -26 -16 -29 -16 -62 3 -30 18 -195 152
-283 231 l-35 30 37 51 37 51 44 -24 c29 -17 42 -30 38 -40 -3 -8 9 -1 26 15
18 17 32 33 32 37 0 4 -23 20 -52 35 -39 22 -66 29 -107 29 -47 0 -53 -2 -42
-15 10 -12 6 -24 -20 -65 -18 -27 -35 -50 -39 -50 -3 0 -19 11 -36 24 l-29 24
27 41 27 41 -29 0 c-21 0 -37 -9 -54 -32 l-25 -31 -40 31 c-54 43 -101 44
-125 2 -10 -16 -21 -30 -25 -30 -4 0 -27 14 -52 30 -33 22 -57 30 -90 30 l-45
0 40 -21 c147 -78 425 -258 425 -276 0 -8 -44 -53 -52 -53 -4 0 -58 33 -120
74 -131 86 -505 276 -544 276 -14 0 -24 -5 -22 -10 2 -6 71 -41 153 -79 154
-70 213 -101 345 -179 122 -73 161 -104 154 -121 -3 -9 -8 -23 -11 -31 -3 -10
34 -44 109 -100 134 -101 280 -221 276 -225 -2 -2 48 -57 111 -122 121 -126
272 -321 363 -469 152 -247 311 -590 358 -770 17 -63 42 -158 55 -211 14 -53
28 -99 32 -102 3 -3 3 5 0 19 -3 14 -11 54 -17 90 -41 236 -113 437 -261 732
l-78 157 43 24 44 24 23 -37 c13 -21 28 -36 33 -33 4 3 4 8 -1 12 -6 3 -13 18
-16 33 -6 21 -2 31 20 47 l26 21 24 -22 c23 -21 83 -109 83 -120 0 -3 -14 -15
-32 -26 -29 -19 -34 -19 -60 -6 l-29 15 20 -39 c39 -77 159 -366 192 -464 10
-29 18 -38 35 -38 13 0 25 4 28 9 3 5 22 11 42 13 40 5 48 -4 59 -65 7 -35 6
-37 -18 -37 -14 0 -32 -3 -40 -6 -9 -3 -17 1 -19 10 -2 10 -8 13 -17 7 -11 -7
-5 -42 32 -192 62 -248 63 -256 43 -278 -13 -14 -17 -34 -15 -78 2 -49 -2 -65
-28 -108 -19 -33 -32 -71 -37 -110 -4 -32 -8 -60 -9 -61 -8 -7 -144 22 -155
33 -20 19 -8 27 17 12 23 -15 43 -3 21 12 -9 6 -11 12 -5 15 36 15 80 43 83
52 2 8 -11 12 -37 12 -23 0 -41 3 -41 8 0 4 17 22 37 41 l38 33 -38 -26 c-41
-30 -74 -40 -82 -25 -4 5 -11 7 -16 4 -16 -11 -10 -20 16 -21 25 -2 58 -27 48
-37 -3 -3 -21 3 -40 13 -25 13 -48 17 -85 14 -33 -3 -48 -2 -43 6 3 5 20 10
36 10 17 0 37 7 45 15 9 8 11 15 6 15 -5 0 -11 -3 -15 -6 -10 -10 -101 -11
-118 -1 -10 7 -22 6 -35 -1 -17 -10 -15 -11 15 -12 26 0 32 -3 27 -16 -3 -8
-2 -12 4 -9 6 4 17 0 25 -9 22 -22 1 -29 -34 -11 -35 17 -69 19 -105 5 -26 -9
-36 -30 -16 -30 11 0 18 -5 64 -45 42 -37 21 -53 -29 -24 -41 24 -125 34 -125
15 0 -6 -5 -4 -10 4 -6 9 -13 11 -17 5 -5 -5 -17 -12 -28 -13 -28 -5 -32 -11
-15 -23 8 -5 29 -8 47 -5 17 2 39 -1 49 -8 17 -13 16 -14 -5 -26 -17 -8 -26
-9 -34 -1 -15 15 -30 14 -25 -1 10 -30 -111 -96 -152 -83 -14 4 -20 2 -20 -8
0 -9 23 -18 70 -27 39 -7 73 -17 76 -22 3 -4 15 -8 26 -8 20 0 20 -1 5 -18
-24 -27 -22 -87 5 -114 l21 -21 -23 -19 c-33 -27 -82 -23 -120 9 l-32 27 21
-42 c11 -23 21 -43 21 -45 0 -11 -67 -13 -107 -4 -36 7 -47 14 -55 38 -13 37
-28 37 -28 0 0 -23 -4 -28 -22 -26 -13 1 -29 3 -35 4 -7 0 -13 14 -13 30 0 28
1 29 63 33 46 3 82 13 128 35 68 34 138 87 128 97 -3 4 -32 -5 -63 -20 -59
-27 -79 -26 -56 1 22 27 -2 40 -38 21 -59 -30 -221 -13 -312 34 -38 19 -40 23
-41 68 -1 26 -1 51 0 56 1 4 -3 13 -8 20 -5 6 -13 36 -16 66 -4 30 -9 62 -12
70 -8 24 -21 -18 -22 -72 -1 -26 -5 -49 -10 -52 -4 -3 -9 -34 -10 -68 -1 -34
-5 -65 -9 -69 -16 -15 -124 -48 -221 -69 -117 -25 -164 -22 -229 16 l-42 25
16 -43 c29 -75 84 -108 184 -108 74 0 90 -8 90 -42 l0 -30 -98 4 c-79 3 -105
8 -136 26 -21 13 -40 21 -42 19 -10 -9 57 -85 79 -91 33 -8 40 -30 18 -58 -16
-18 -28 -22 -82 -22 -35 -1 -79 2 -96 6 -25 6 -33 4 -33 -6 0 -38 159 -122
251 -133 39 -5 49 -10 49 -24 0 -12 -7 -19 -19 -19 -16 0 -19 -15 -30 -137 -7
-76 -18 -143 -24 -150 -7 -6 -37 -14 -67 -18 -52 -6 -58 -5 -98 27 -120 92
-132 97 -183 75 -19 -8 -37 -15 -41 -16 -4 -1 -22 -8 -40 -15 -23 -10 -36 -11
-49 -3 -12 8 -28 8 -56 -1 -21 -6 -74 -20 -118 -30 -44 -11 -127 -33 -185 -50
-58 -18 -148 -43 -200 -57 -140 -38 -399 -157 -444 -204 l-27 -28 46 -6 c83
-12 282 -66 374 -102 50 -19 97 -35 104 -35 8 0 17 -3 21 -7 4 -4 -66 -27
-156 -50 -125 -33 -183 -43 -248 -44 -72 -1 -79 -3 -45 -10 49 -10 1682 -10
1640 1 -25 6 -27 8 -12 14 9 5 24 6 32 2 8 -3 15 0 15 6 0 7 4 7 13 -1 8 -6
17 -8 20 -4 4 3 7 -6 7 -21 l0 -27 -865 3 -866 3 6 -25 c3 -15 -5 -6 -18 20
-18 35 -44 58 -118 108 -133 90 -132 88 -119 149 9 41 16 52 35 57 13 3 40 16
60 27 74 44 24 104 -113 136 -61 15 -71 20 -75 42 -3 14 -1 34 3 45 8 20 9 19
11 -4 1 -16 3 -19 6 -9 3 14 26 18 151 23 81 4 176 11 212 17 36 5 106 16 157
24 125 18 230 45 244 61 6 8 19 14 28 14 10 0 26 7 37 15 10 8 27 15 36 15 9
0 18 6 21 13 3 9 7 9 18 1 20 -16 68 -23 66 -10 -2 11 -24 18 -227 65 -74 18
-193 46 -265 63 l-130 32 -140 -18 c-77 -10 -216 -22 -310 -26 -238 -12 -916
-12 -1000 1 -94 13 -560 117 -610 136 -22 8 -44 14 -50 14 -5 0 -93 -23 -195
-50 -222 -61 -214 -59 -215 -43 0 8 -7 19 -17 26 -9 6 -18 22 -20 35 -2 17
-11 25 -28 28 -13 2 -27 7 -30 12 -3 5 -15 11 -27 15 -13 4 -23 14 -23 21 0 8
-6 12 -14 9 -7 -3 -16 2 -19 11 -5 11 -16 14 -42 12 -19 -2 -35 0 -35 4 0 5
-9 9 -20 9 -12 0 -20 7 -20 18 0 31 -33 50 -84 47 -25 -1 -46 2 -46 8 0 6 -26
7 -67 3 -147 -13 -163 -14 -163 -5 0 5 -7 9 -15 9 -8 0 -15 4 -15 9 0 5 -15
12 -32 16 -39 9 -33 9 -83 1 l-40 -6 34 30 c25 21 38 27 47 19 8 -7 13 -6 16
1 2 7 15 6 40 -4 24 -10 39 -12 43 -6 9 14 25 2 19 -14 -3 -7 3 -19 12 -27 16
-13 16 -12 5 9 -10 18 -9 23 4 28 9 4 19 4 22 0 3 -3 12 3 20 14 8 11 20 17
28 14 11 -5 15 1 15 20 0 16 -6 26 -15 26 -9 0 -12 6 -9 15 7 18 0 19 -27 5
-15 -9 -19 -7 -19 6 0 13 -3 14 -15 4 -12 -10 -15 -10 -15 0 0 8 -9 11 -25 8
-29 -6 -34 8 -6 17 10 3 26 14 36 25 12 13 31 20 56 20 21 0 41 5 44 11 5 7
13 5 24 -5 10 -9 31 -19 48 -22 28 -6 32 -3 38 24 4 22 11 29 24 25 23 -6 33
19 21 51 -6 18 -14 23 -28 19 -12 -3 -28 4 -41 18 -11 13 -21 19 -21 14 0 -4
-11 5 -25 21 -14 16 -25 25 -25 20 0 -5 -8 -2 -18 7 -16 15 -20 15 -39 2 -23
-16 -37 -7 -27 19 6 16 66 15 72 -3 2 -5 12 -6 24 -3 14 3 26 -1 34 -13 8 -11
14 -14 14 -7 0 8 7 9 27 1 19 -7 29 -7 31 0 2 6 10 11 18 11 8 0 14 4 14 9 0
5 3 17 7 27 4 12 3 15 -5 10 -8 -5 -10 -2 -6 8 4 11 0 16 -10 16 -9 0 -16 -7
-16 -15 0 -16 -45 -21 -54 -6 -6 9 -54 7 -93 -5 -29 -8 -29 -3 1 45 29 45 65
60 73 31 4 -16 9 -18 24 -9 10 5 19 17 19 25 0 12 6 15 24 10 40 -10 59 46 24
67 -10 7 -18 18 -18 25 0 7 -4 11 -9 7 -6 -3 -15 4 -21 15 -6 11 -17 20 -25
20 -8 0 -15 5 -15 10 0 6 5 10 10 10 6 0 10 4 10 9 0 5 -24 15 -52 21 -29 7
-58 17 -64 22 -8 5 -18 3 -28 -8 -16 -15 -18 -15 -36 1 -16 14 -23 15 -34 6
-8 -7 -23 -12 -33 -11 -40 5 -53 0 -53 -20 0 -22 -16 -27 -23 -7 -6 17 -42 -6
-41 -27 1 -9 -5 -16 -14 -16 -12 0 -13 -3 -5 -11 11 -11 9 -19 -14 -58 -2 -2
-12 4 -23 14 -15 14 -23 16 -32 7 -13 -13 -52 3 -43 18 3 5 1 11 -4 15 -6 3
-8 12 -4 20 6 18 -77 59 -91 45 -9 -9 -75 26 -82 45 -3 7 -26 15 -51 19 -37 5
-48 3 -59 -11 -12 -17 -13 -17 -14 -1 0 9 4 19 8 22 5 3 12 43 15 89 12 168
91 463 178 663 82 188 122 263 228 421 177 266 329 452 446 545 27 22 50 45
51 52 0 6 2 16 2 23 1 7 30 31 65 54 34 24 112 81 173 128 61 47 124 95 140
107 24 17 27 24 17 36 -10 12 -9 18 10 35 68 62 316 210 506 302 124 60 133
66 102 69 -26 3 -60 -10 -145 -54 -164 -85 -259 -139 -375 -217 l-104 -69 -31
32 -31 31 30 25 c28 23 269 185 345 232 31 19 32 22 12 22 -12 0 -46 -12 -73
-26 l-51 -26 -27 26 c-22 21 -37 26 -78 26 -47 0 -58 -5 -124 -55 l-73 -54
-40 54 c-38 51 -44 54 -84 55 -39 0 -78 -18 -140 -66 -2 -1 2 -12 8 -24 7 -13
15 -18 19 -13 3 5 27 21 53 35 41 23 47 24 51 9 3 -11 5 -9 6 7 2 33 13 27 56
-29 31 -41 36 -52 24 -60 -24 -15 -35 -10 -55 26 -10 19 -20 35 -22 35 -2 0
-44 -29 -93 -65 -50 -36 -94 -65 -98 -65 -3 0 -25 24 -48 54 -49 62 -52 56 57
115 l75 41 -60 0 -61 0 -124 -94 c-69 -52 -145 -112 -170 -134 l-45 -40 76
-79 c41 -43 85 -93 98 -111 l23 -33 -66 -69 c-36 -39 -99 -112 -140 -162 -40
-51 -92 -110 -114 -131 -39 -38 -40 -39 -66 -22 -14 10 -26 20 -26 24 0 8 122
143 238 262 111 115 112 105 -20 205 l-88 66 -48 -43 c-88 -80 -327 -292 -343
-306 -14 -12 -24 -6 -78 49 l-62 63 24 20 c238 199 367 310 367 316 0 5 -11
25 -25 45 -37 54 -50 105 -37 143 10 29 10 31 -14 31 -13 0 -24 -6 -25 -12z
m1241 -23 c5 -14 15 -25 21 -25 8 0 7 6 -2 18 -10 13 -8 12 9 -3 l24 -20 -24
-18 c-13 -11 -66 -50 -118 -87 -52 -37 -103 -77 -114 -88 -18 -21 -18 -22 25
-73 33 -40 40 -55 32 -68 -21 -35 -329 -271 -354 -271 -14 0 -57 52 -52 64 2
6 45 45 95 86 49 41 103 86 119 100 l30 25 -35 51 -35 51 27 31 c44 49 316
252 339 252 2 0 8 -11 13 -25z m3977 -79 c60 -42 130 -98 157 -125 l48 -49
-27 -46 c-30 -51 -28 -73 7 -78 13 -2 23 -10 23 -18 1 -8 7 -14 14 -12 7 1 15
-7 18 -18 4 -14 11 -19 22 -15 11 3 43 -16 90 -56 l73 -61 -44 -47 c-23 -25
-44 -47 -45 -50 -1 -2 -27 16 -58 40 -30 24 -101 80 -156 124 -56 44 -107 87
-112 96 -7 11 0 30 28 71 20 31 35 64 33 74 -3 20 -61 67 -181 148 l-77 53 21
27 c14 18 28 26 40 23 9 -3 66 -39 126 -81z m303 28 c0 -2 -13 2 -30 11 -16 9
-30 18 -30 21 0 2 14 -2 30 -11 17 -9 30 -18 30 -21z m-4900 -91 c23 -26 37
-49 31 -51 -6 -2 -9 -7 -6 -11 11 -18 -33 -4 -66 22 -42 31 -45 32 -53 11 -3
-8 -2 -12 4 -9 6 3 7 -1 4 -9 -3 -9 -9 -16 -13 -16 -4 0 -27 -18 -51 -40 l-44
-41 -20 21 -21 21 45 41 c51 46 132 107 142 108 3 0 25 -21 48 -47z m5243 -26
c37 -23 67 -44 67 -47 0 -3 -29 -34 -64 -69 -57 -56 -67 -63 -81 -51 -38 31
-39 50 -4 86 32 33 32 34 13 49 -17 13 -22 12 -50 -19 -27 -28 -34 -31 -49
-20 -10 7 -23 15 -29 17 -6 2 11 29 37 60 55 64 42 65 160 -6z m-5045 -70
c-73 -68 -96 -96 -89 -106 7 -12 16 -9 48 16 58 45 60 46 82 14 l21 -29 -36
-36 c-20 -20 -38 -35 -41 -33 -2 2 -20 -11 -39 -30 l-36 -34 -44 48 -43 47
-31 -36 -31 -37 -35 38 c-19 21 -34 42 -34 47 0 5 4 3 9 -5 7 -10 13 -9 32 7
149 126 195 162 258 204 68 45 76 47 90 33 15 -15 8 -25 -81 -108z m-188 4 c0
-3 -30 -34 -67 -68 -60 -55 -68 -60 -80 -45 -7 10 -13 20 -13 23 0 14 132 108
146 102 8 -3 14 -8 14 -12z m-130 -35 c0 -2 -8 -10 -17 -17 -16 -13 -17 -12
-4 4 13 16 21 21 21 13z m5006 -30 l28 -23 -33 -42 c-18 -22 -35 -41 -37 -41
-3 0 -16 11 -30 24 l-26 23 27 42 c15 22 31 41 36 41 4 0 20 -11 35 -24z
m-5185 -77 c32 -23 59 -49 59 -58 0 -10 -18 -35 -41 -56 -22 -22 -65 -70 -96
-107 -30 -38 -58 -68 -62 -68 -4 0 -16 6 -26 14 -18 13 -16 16 21 62 63 76 74
97 59 111 -10 9 -18 6 -36 -13 -12 -13 -30 -24 -39 -24 -17 0 -60 35 -60 49 0
15 130 131 146 131 9 0 42 -19 75 -41z m5794 11 l29 -30 -52 -53 -52 -52 65
-64 65 -65 -27 -28 -27 -28 -97 102 -96 103 76 72 c42 40 79 72 82 73 3 0 18
-14 34 -30z m-526 -4 c10 -12 9 -20 -4 -40 -20 -30 -37 -33 -55 -11 -11 13 -9
20 10 40 27 29 33 30 49 11z m95 -68 l37 -33 -25 -30 -24 -30 -28 21 c-44 32
-50 48 -28 77 10 15 22 27 25 27 3 0 22 -15 43 -32z m-5000 -76 c-6 -9 -25
-22 -43 -28 l-32 -10 59 -65 59 -64 -117 -113 c-87 -83 -157 -164 -267 -309
-81 -108 -153 -204 -159 -212 -9 -12 -17 -10 -48 14 -20 15 -36 33 -36 39 0
38 163 263 289 399 90 98 110 128 71 107 -24 -13 -60 7 -80 44 -11 22 -10 29
19 65 18 23 36 41 40 41 7 0 45 -39 70 -73 12 -15 11 -21 -5 -40 -10 -12 -2
-7 19 12 41 39 43 31 -28 110 l-30 33 40 32 c21 17 57 48 78 70 l39 39 36 -37
c30 -30 35 -39 26 -54z m5494 6 l-31 -39 -23 22 c-25 24 -25 26 20 77 l20 22
22 -21 23 -22 -31 -39z m-6078 -23 l34 -35 -115 -117 c-128 -132 -136 -139
-163 -144 -17 -4 -14 -11 27 -57 26 -29 47 -56 47 -60 -1 -4 -9 -17 -20 -30
l-20 -24 -55 49 c-31 26 -65 63 -77 81 l-20 33 38 55 c34 50 268 284 284 284
3 0 21 -16 40 -35z m6190 -15 c26 -22 51 -36 55 -32 5 4 5 2 2 -4 -9 -16 100
-117 116 -108 6 4 9 4 5 -1 -7 -7 12 -32 101 -138 13 -16 9 -22 -47 -77 -34
-33 -67 -60 -74 -60 -7 0 -23 14 -35 32 l-22 31 35 36 35 36 -73 65 c-40 36
-104 95 -142 131 l-69 66 22 32 c12 17 27 31 33 31 6 0 32 -18 58 -40z m-509
-1 c16 -11 29 -26 29 -33 0 -7 -15 -33 -34 -58 l-35 -45 61 -67 62 -68 18 24
c19 25 23 48 9 48 -5 0 -12 -6 -14 -12 -3 -8 -21 3 -47 31 -42 44 -42 44 -22
64 20 20 20 20 49 -9 15 -16 45 -42 66 -57 20 -15 42 -37 48 -49 10 -18 7 -26
-25 -55 -21 -20 -33 -40 -30 -46 20 -35 81 -114 97 -126 10 -7 16 -19 13 -27
-3 -7 0 -16 6 -20 7 -4 8 -3 4 4 -4 7 -5 12 -2 12 3 0 12 -16 20 -35 8 -19 20
-35 25 -35 6 0 11 -7 11 -15 0 -9 12 -28 28 -42 15 -15 21 -23 15 -19 -9 5
-11 2 -7 -8 3 -9 10 -13 15 -10 8 5 13 -10 7 -20 -2 -2 5 -13 14 -23 10 -11
20 -33 24 -49 5 -26 1 -34 -29 -57 -20 -15 -38 -27 -40 -27 -2 0 -31 44 -63
97 -108 178 -262 371 -409 512 l-77 73 34 36 c94 101 126 132 138 132 6 0 25
-9 41 -21z m-5650 -148 l24 -19 -85 -86 c-46 -48 -88 -93 -93 -101 -12 -22
-21 -19 -45 15 l-22 29 86 91 c48 49 92 90 99 90 7 0 23 -9 36 -19z m236 -73
c13 -12 23 -26 23 -31 0 -6 -30 -42 -67 -81 -38 -39 -87 -95 -109 -123 l-41
-52 -32 39 c-36 45 -51 49 -69 20 -16 -27 -30 -25 -63 6 l-28 27 46 53 c26 30
50 54 53 54 4 0 27 -16 51 -35 l44 -35 27 32 c14 18 26 36 25 40 -2 7 103 108
112 108 3 0 15 -10 28 -22z m5893 -173 c-19 -23 -29 -19 -71 28 -44 48 -44 50
-24 71 14 13 20 10 61 -34 39 -42 45 -52 34 -65z m-218 78 c10 -20 21 -28 37
-27 16 1 35 -11 55 -34 52 -59 53 -61 10 -98 -22 -18 -42 -33 -45 -34 -4 0
-21 21 -37 48 -17 26 -39 56 -49 67 -47 53 -48 54 -23 80 30 32 36 31 52 -2z
m204 -5 l29 -33 -32 29 c-31 28 -38 36 -30 36 2 0 16 -15 33 -32z m174 -150
c0 -4 -25 -27 -55 -52 l-55 -45 22 -23 c13 -13 19 -17 13 -8 -5 9 3 3 18 -12
15 -16 25 -34 21 -40 -4 -7 -3 -8 4 -4 8 4 16 -3 22 -19 13 -35 15 -31 -27
-59 -27 -19 -40 -23 -50 -14 -7 6 -13 14 -13 19 0 5 -10 25 -22 44 -28 42 -53
47 -45 8 3 -16 -1 -33 -12 -44 -15 -16 -17 -15 -32 21 -14 31 -14 38 -3 33 19
-7 18 9 -3 52 -14 29 -22 35 -43 33 -47 -6 -26 21 85 106 l110 84 32 -36 c18
-20 33 -40 33 -44z m-6416 -1 c4 5 6 1 4 -7 -2 -8 3 -14 10 -12 8 1 11 -2 8
-7 -8 -13 21 -34 35 -25 8 5 10 3 4 -7 -11 -18 -87 -112 -97 -120 -4 -3 10
-23 32 -44 46 -44 47 -50 21 -88 l-18 -28 -93 89 c-107 103 -106 89 -13 204
52 66 55 67 77 53 12 -8 26 -12 30 -8z m147 -31 c10 -21 5 -35 -40 -110 -29
-47 -56 -86 -60 -86 -5 0 -14 6 -20 14 -9 11 -5 25 17 63 17 28 33 61 37 74
10 33 33 69 45 69 6 0 15 -11 21 -24z m6506 -433 c34 -49 33 -62 -8 -84 -15
-8 -23 -2 -44 29 -25 39 -25 40 -8 70 10 18 20 32 23 32 3 0 20 -21 37 -47z
m-121 -237 c13 -33 21 -63 17 -66 -18 -15 -77 -33 -80 -24 -2 5 -28 70 -58
144 l-55 135 32 27 32 27 44 -92 c24 -51 54 -119 68 -151z m72 139 c-3 -3 -9
2 -12 12 -6 14 -5 15 5 6 7 -7 10 -15 7 -18z m-7022 -74 c-11 -12 -15 -25 -10
-32 4 -7 -6 -3 -23 9 -29 20 -32 21 -35 5 -3 -16 -4 -16 -10 -2 -4 10 4 31 18
53 l25 36 26 -25 c26 -23 26 -25 9 -44z m-48 -41 c-1 -3 2 -13 7 -23 5 -11 -7
-46 -36 -107 l-42 -90 -54 0 -54 0 45 83 c25 46 43 87 39 90 -3 4 0 7 7 7 7 0
10 3 7 7 -4 3 1 12 11 20 9 8 11 11 3 7 -8 -4 -12 -3 -8 3 6 9 76 13 75 3z
m7056 -184 c9 -28 13 -53 9 -57 -5 -3 -25 -10 -46 -13 -33 -6 -38 -4 -46 16
-24 65 -22 73 17 96 20 11 40 18 43 14 4 -4 14 -29 23 -56z m-6861 -73 c-7 -2
-19 -2 -25 0 -7 3 -2 5 12 5 14 0 19 -2 13 -5z m-6 -17 c2 -2 -2 -27 -9 -55
l-12 -53 -40 6 c-22 4 -42 9 -44 11 -2 2 1 27 8 56 l13 51 40 -6 c23 -4 43 -8
44 -10z m7223 -103 c0 -5 -20 -23 -44 -41 -37 -28 -56 -34 -114 -39 -69 -6
-69 -6 -76 22 -4 15 -4 30 -1 34 4 3 48 11 98 17 121 15 137 15 137 7z m-7250
-41 c0 -5 -5 -34 -11 -66 -9 -43 -16 -56 -26 -52 -8 4 -26 6 -40 6 -24 0 -25
2 -18 46 10 70 13 74 56 74 21 0 39 -4 39 -8z m6986 -42 c8 -49 15 -54 57 -42
51 16 107 24 107 15 0 -4 -17 -30 -36 -57 l-36 -49 -20 32 c-20 32 -21 32 -82
26 l-62 -7 -10 56 c-11 60 -10 62 48 65 25 1 28 -3 34 -39z m-7023 -97 c-7 -2
-19 -2 -25 0 -7 3 -2 5 12 5 14 0 19 -2 13 -5z m7077 -3 c0 -5 -7 -7 -15 -4
-8 4 -15 8 -15 10 0 2 7 4 15 4 8 0 15 -4 15 -10z m-7090 -20 c21 -7 19 -8
-17 -9 -24 -1 -43 4 -43 9 0 12 24 12 60 0z m7074 -7 c8 -25 6 -38 -5 -35 -5
1 -9 -2 -9 -8 0 -5 4 -10 10 -10 5 0 7 -7 4 -15 -4 -8 -10 -15 -16 -15 -5 0
-6 5 -2 11 4 7 1 10 -7 7 -8 -3 -16 -15 -17 -27 -2 -13 0 -21 5 -18 4 3 6 -15
4 -39 -4 -54 -18 -57 -26 -6 -3 20 -10 61 -15 91 -12 63 -2 81 41 81 18 0 30
-6 33 -17z m-44 -224 c0 -6 -4 -7 -10 -4 -5 3 -10 11 -10 16 0 6 5 7 10 4 6
-3 10 -11 10 -16z m-6820 -137 c0 -15 -2 -15 -10 -2 -13 20 -13 33 0 25 6 -3
10 -14 10 -23z m30 8 c0 -5 -4 -10 -10 -10 -5 0 -10 5 -10 10 0 6 5 10 10 10
6 0 10 -4 10 -10z m130 -29 c0 -5 11 -12 25 -15 25 -6 34 -29 16 -41 -10 -6
-41 21 -41 36 0 5 -7 9 -15 9 -8 0 -15 5 -15 10 0 6 7 10 15 10 8 0 15 -4 15
-9z m440 -1 c0 -5 -2 -10 -4 -10 -3 0 -8 5 -11 10 -3 6 -1 10 4 10 6 0 11 -4
11 -10z m-127 -37 c4 -3 -5 -17 -19 -30 -14 -12 -20 -23 -15 -23 7 0 7 -8 0
-26 -8 -24 -8 -25 6 -14 8 7 15 9 15 5 0 -4 7 -2 15 5 20 16 40 3 24 -16 -31
-37 -48 -37 -89 4 -22 21 -40 44 -40 50 0 17 -17 15 -24 -3 -3 -8 -10 -15 -16
-15 -6 0 -9 4 -6 8 3 4 -10 8 -29 9 -18 1 -41 5 -51 11 -16 9 -15 11 6 22 18
9 27 9 46 0 13 -8 30 -9 41 -5 10 5 33 9 51 10 18 2 36 5 39 9 8 8 38 8 46 -1z
m188 -40 c-5 -10 -23 -31 -41 -48 -49 -47 -50 -48 -70 -82 -19 -32 -45 -47
-35 -20 4 8 -5 12 -25 13 -16 1 -27 -3 -24 -7 3 -5 -2 -9 -10 -9 -9 0 -16 2
-16 4 0 11 56 66 67 66 7 0 13 5 13 11 0 7 10 9 25 7 20 -4 32 2 55 28 16 19
34 34 40 34 5 0 10 5 10 10 0 6 5 10 10 10 7 0 7 -6 1 -17z m-431 -7 c0 -11
-19 -15 -25 -6 -3 5 1 10 9 10 9 0 16 -2 16 -4z m6263 -52 c48 -11 29 -21 -22
-10 -28 5 -48 14 -45 18 3 5 13 7 22 4 10 -3 29 -8 45 -12z m-6503 -84 c0 -5
-4 -10 -10 -10 -5 0 -10 5 -10 10 0 6 5 10 10 10 6 0 10 -4 10 -10z m6510 0
c0 -5 -5 -10 -11 -10 -5 0 -7 5 -4 10 3 6 8 10 11 10 2 0 4 -4 4 -10z m-6455
-29 c7 -12 -12 -24 -25 -16 -11 7 -4 25 10 25 5 0 11 -4 15 -9z m430 -20 c-3
-6 -11 -11 -16 -11 -5 0 -4 6 3 14 14 16 24 13 13 -3z m6163 13 c40 -8 50 -46
27 -113 -9 -27 -22 -80 -28 -117 -12 -62 -16 -69 -38 -71 -13 -1 -18 0 -11 3
17 8 15 24 -4 24 -10 0 -14 5 -10 15 7 19 -21 32 -36 17 -6 -6 -26 -8 -44 -5
-22 4 -34 2 -34 -6 0 -6 5 -11 12 -11 6 0 8 -3 4 -7 -4 -5 -35 -9 -69 -10 -91
-4 -140 -9 -161 -18 -13 -6 -21 -3 -28 9 -6 10 -16 15 -27 11 -27 -8 -51 35
-51 94 0 44 3 49 25 55 28 7 51 41 35 51 -5 3 -10 1 -10 -4 0 -6 -4 -11 -10
-11 -5 0 -10 6 -10 14 0 16 24 29 60 32 52 6 78 13 121 32 35 16 66 20 150 21
59 1 120 -2 137 -5z m-6333 -24 c3 -5 1 -10 -4 -10 -6 0 -11 5 -11 10 0 6 2
10 4 10 3 0 8 -4 11 -10z m-335 -10 c0 -5 -4 -10 -10 -10 -5 0 -10 5 -10 10 0
6 5 10 10 10 6 0 10 -4 10 -10z m65 -30 c-3 -5 -10 -10 -16 -10 -5 0 -9 5 -9
10 0 6 7 10 16 10 8 0 12 -4 9 -10z m179 -25 c-7 -16 -24 -21 -24 -6 0 8 7 13
27 20 1 1 0 -6 -3 -14z m-220 -9 c-3 -9 -12 -12 -22 -9 -15 6 -9 11 25 22 1 1
0 -5 -3 -13z m76 0 c0 -5 -98 -66 -105 -66 -3 0 -5 5 -5 11 0 5 24 21 53 34
59 27 57 26 57 21z m276 -31 c10 -8 14 -15 7 -15 -6 0 -17 -2 -25 -5 -7 -3
-20 0 -28 5 -13 9 -13 11 0 20 20 13 23 13 46 -5z m124 -20 c0 -8 -7 -15 -15
-15 -16 0 -20 12 -8 23 11 12 23 8 23 -8z m30 -11 c0 -9 -28 -34 -38 -34 -5 0
-21 -18 -36 -40 -29 -45 -52 -55 -34 -15 6 14 16 25 21 25 5 0 5 6 -2 13 -14
17 -5 27 24 27 13 0 28 7 35 15 12 15 30 20 30 9z m-381 -13 c12 -4 -24 -30
-49 -35 -26 -5 -30 -9 -24 -29 4 -19 1 -25 -15 -30 -12 -3 -21 0 -21 5 0 6 -8
3 -19 -6 -18 -16 -19 -16 -24 16 -6 43 17 72 45 57 14 -8 23 -8 31 0 8 8 8 11
-2 11 -7 0 -10 4 -7 8 4 7 69 9 85 3z m365 -46 c-6 -16 -24 -21 -24 -7 0 11
11 22 21 22 5 0 6 -7 3 -15z m-284 -17 c0 -18 -2 -20 -9 -8 -6 8 -7 18 -5 22
9 14 14 9 14 -14z m-41 -22 c10 -12 8 -13 -8 -9 -12 3 -21 9 -21 14 0 14 16
11 29 -5z m135 -13 c26 -4 28 -7 20 -27 -3 -9 -12 -16 -20 -16 -7 0 -11 6 -8
14 3 9 -1 13 -12 13 -11 -1 -20 6 -22 17 -3 13 0 16 10 10 7 -5 22 -10 32 -11z
m66 -27 c0 -2 -7 -7 -16 -10 -8 -3 -12 -2 -9 4 6 10 25 14 25 6z m5360 -31 l0
-36 -182 2 c-238 2 -248 3 -248 40 l0 29 215 0 215 0 0 -35z m-5631 -26 c6 9
15 9 35 2 23 -9 26 -15 20 -38 -7 -30 -50 -93 -63 -93 -5 0 -14 7 -21 15 -10
12 -10 18 0 30 10 12 9 18 -8 32 -16 14 -19 23 -11 42 8 20 12 21 25 10 12
-10 17 -10 23 0z m141 -11 c0 18 17 15 40 -8 20 -20 20 -20 -6 -37 -20 -12
-28 -13 -33 -4 -6 9 -11 8 -21 -4 -16 -19 -30 -19 -30 0 0 8 5 15 10 15 6 0
10 8 10 18 0 25 12 35 22 20 6 -10 8 -10 8 0z m144 -47 c20 -22 4 -40 -19 -21
-8 6 -19 9 -25 5 -12 -7 -12 -3 -4 19 8 21 27 20 48 -3z m6070 3 c9 -8 16 -21
16 -27 0 -8 -3 -8 -8 1 -7 10 -15 10 -36 2 -17 -6 -25 -6 -21 0 3 6 13 10 21
10 17 0 19 16 2 23 -9 4 -10 6 -1 6 6 1 19 -6 27 -15z m-277 -1 c-4 -3 1 -15
10 -25 16 -18 16 -18 -2 -12 -11 5 -22 1 -30 -9 -29 -40 -129 -50 -176 -16
-40 28 -36 39 14 40 23 1 71 7 107 14 86 16 84 16 77 8z m331 -5 c-6 -18 -25
-20 -31 -3 -5 10 0 15 14 15 12 0 19 -5 17 -12z m-148 -8 c0 -5 -4 -10 -9 -10
-6 0 -13 5 -16 10 -3 6 1 10 9 10 9 0 16 -4 16 -10z m200 -6 c0 -8 -4 -12 -10
-9 -5 3 -10 10 -10 16 0 5 5 9 10 9 6 0 10 -7 10 -16z m-6266 -28 c-4 -12 -13
-37 -22 -56 -14 -35 -15 -35 -22 -10 -3 14 -4 27 0 30 8 6 24 43 22 51 0 3 6
6 14 6 10 0 12 -7 8 -21z m-53 -22 c-20 -26 -61 -41 -61 -23 0 10 72 60 78 54
2 -2 -5 -16 -17 -31z m4939 15 c0 -5 23 -9 50 -9 l50 0 0 -36 0 -37 -82 7
c-46 4 -93 10 -106 13 l-23 6 30 31 c28 29 81 45 81 25z m750 -11 c0 -6 9 -21
20 -33 l20 -22 -42 -3 c-24 -2 -68 -4 -98 -4 -55 -1 -55 -1 -58 31 -3 31 -2
32 45 36 100 7 113 7 113 -5z m-190 -33 l0 -35 -215 0 -215 0 0 35 0 35 215 0
215 0 0 -35z m804 6 c15 -17 15 -22 2 -62 -9 -24 -21 -46 -28 -48 -33 -11 -68
-60 -68 -95 0 -20 -5 -36 -11 -36 -6 0 -40 28 -75 63 -62 62 -64 65 -64 114 0
48 2 52 28 56 35 6 82 3 105 -7 10 -5 23 -4 30 2 9 8 21 7 41 -3 40 -21 55
-18 27 5 -12 11 -27 17 -32 14 -5 -3 -9 0 -9 5 0 18 36 12 54 -8z m-295 -62
c6 -18 11 -38 11 -45 0 -22 -44 -16 -85 12 -21 14 -44 23 -51 20 -16 -6 -29
10 -15 19 6 3 31 6 56 7 25 0 48 4 51 9 10 17 22 9 33 -22z m-5926 -6 c-7 -2
-21 -2 -30 0 -10 3 -4 5 12 5 17 0 24 -2 18 -5z m512 -4 c10 -14 1 -21 -19
-13 -9 3 -13 10 -10 15 7 12 21 11 29 -2z m5320 -60 c39 -28 80 -67 92 -87 13
-21 41 -46 67 -59 63 -32 69 -47 48 -129 l-17 -69 -67 -3 c-65 -3 -68 -2 -68
21 0 12 -5 28 -12 35 -9 9 -9 12 0 12 14 0 16 36 2 45 -5 3 -10 -1 -10 -9 0
-20 -17 -21 -36 -2 -18 19 -18 24 4 29 13 4 12 5 -5 6 -34 2 -34 -11 -2 -58
16 -24 29 -50 29 -58 0 -15 -63 -18 -144 -7 -59 9 -62 15 -79 182 -9 87 -17
126 -25 125 -7 -2 -12 2 -12 7 0 6 4 10 10 10 5 0 7 6 4 14 -8 22 -36 7 -29
-15 5 -15 1 -19 -18 -19 -17 0 -26 7 -30 22 -4 12 -4 24 -2 26 2 2 39 8 82 13
43 5 83 11 88 14 33 12 66 1 130 -46z m-5205 5 c0 -8 -5 -12 -10 -9 -6 4 -8
11 -5 16 9 14 15 11 15 -7z m4320 -49 c0 -58 -2 -65 -20 -65 -17 0 -20 7 -20
40 0 22 -4 40 -10 40 -5 0 -10 11 -10 25 0 21 5 25 30 25 l30 0 0 -65z m550
38 c0 -16 3 -45 6 -65 6 -36 5 -38 -20 -38 -24 0 -26 3 -26 48 0 59 -6 67 -33
41 -21 -19 -33 -20 -227 -16 -113 2 -211 6 -217 10 -6 4 -9 16 -6 27 5 19 14
20 264 20 l259 0 0 -27z m-5314 0 c12 -17 13 -17 19 0 10 24 29 22 22 -3 -5
-18 4 -25 27 -21 5 1 5 -6 1 -16 -4 -10 -11 -33 -17 -50 -7 -25 -15 -33 -32
-33 -12 0 -51 -9 -85 -21 -69 -22 -87 -20 -48 6 35 22 39 41 19 73 -11 19 -23
26 -37 24 -17 -4 -18 -2 -6 11 7 9 10 21 6 27 -3 5 1 10 9 10 9 0 16 -4 16
-10 0 -5 8 -10 18 -10 10 0 23 -5 29 -11 7 -7 12 -3 17 15 7 30 23 33 42 9z
m524 -7 c0 -3 -4 -8 -10 -11 -5 -3 -10 -1 -10 4 0 6 5 11 10 11 6 0 10 -2 10
-4z m-400 -10 c0 -2 -9 -6 -20 -9 -11 -3 -18 -1 -14 4 5 9 34 13 34 5z m370
-6 c0 -5 -5 -10 -11 -10 -5 0 -7 5 -4 10 3 6 8 10 11 10 2 0 4 -4 4 -10z
m-350 -20 c13 -9 13 -11 0 -20 -20 -13 -4 -13 21 0 10 6 19 8 19 5 0 -8 -63
-45 -77 -45 -16 0 -17 42 -1 58 14 14 19 15 38 2z m5250 -37 c0 -7 -7 -13 -15
-13 -15 0 -21 31 -8 43 8 8 23 -12 23 -30z m-703 -15 c-3 -7 -5 -2 -5 12 0 14
2 19 5 13 2 -7 2 -19 0 -25z m157 17 c4 -10 -1 -15 -14 -15 -11 0 -20 7 -20
15 0 8 6 15 14 15 8 0 16 -7 20 -15z m286 -11 c0 -8 -4 -14 -10 -14 -5 0 -10
9 -10 21 0 11 5 17 10 14 6 -3 10 -13 10 -21z m33 11 c4 -8 2 -17 -3 -20 -6
-4 -10 3 -10 14 0 25 6 27 13 6z m53 4 c3 -6 0 -15 -7 -20 -22 -14 -29 -11
-29 11 0 21 24 27 36 9z m-318 -10 c-2 -6 -8 -10 -13 -10 -5 0 -11 4 -13 10
-2 6 4 11 13 11 9 0 15 -5 13 -11z m42 -5 c0 -17 -22 -14 -28 4 -2 7 3 12 12
12 9 0 16 -7 16 -16z m40 1 c0 -8 -4 -15 -10 -15 -5 0 -10 7 -10 15 0 8 5 15
10 15 6 0 10 -7 10 -15z m48 3 c-6 -18 -28 -21 -28 -4 0 9 7 16 16 16 9 0 14
-5 12 -12z m40 0 c-6 -18 -28 -21 -28 -4 0 9 7 16 16 16 9 0 14 -5 12 -12z
m19 -10 c-3 -8 -6 -5 -6 6 -1 11 2 17 5 13 3 -3 4 -12 1 -19z m-4823 0 c-5 -8
2 -9 25 -5 27 6 34 4 38 -13 3 -11 9 -20 14 -20 5 0 6 8 3 18 -4 13 -2 12 8
-3 8 -13 23 -21 42 -20 16 0 31 -6 34 -14 3 -11 -2 -12 -23 -7 -15 4 -24 3
-21 -2 3 -5 -20 -21 -52 -35 -51 -23 -58 -24 -73 -11 -15 14 -19 13 -41 -9
-15 -15 -51 -30 -96 -41 l-72 -18 -51 26 c-60 32 -74 30 -54 -6 16 -32 9 -35
-22 -13 -20 14 -21 19 -10 43 16 37 22 40 94 48 60 6 91 23 79 43 -9 14 56 32
177 50 5 0 5 -4 1 -11z m4496 -123 c0 -78 -2 -85 -20 -85 -18 0 -20 7 -20 85
0 78 2 85 20 85 18 0 20 -7 20 -85z m564 48 c3 -21 6 -64 6 -95 0 -50 -3 -58
-19 -58 -15 0 -19 11 -25 61 -11 106 -8 129 13 129 14 0 20 -10 25 -37z m80
-35 c4 -40 9 -81 12 -90 3 -12 0 -18 -10 -18 -10 0 -16 16 -21 58 -3 31 -8 72
-11 90 -4 23 -1 32 9 32 11 0 16 -20 21 -72z m-554 -24 c0 -76 -2 -85 -17 -82
-15 3 -18 16 -21 86 -3 77 -2 82 18 82 19 0 20 -6 20 -86z m360 -13 c0 -74 -3
-100 -14 -104 -7 -3 -46 1 -87 9 -41 8 -94 14 -119 14 -89 0 -90 1 -90 96 l0
84 155 0 155 0 0 -99z m-4680 75 c0 -9 -7 -12 -20 -9 -11 3 -20 9 -20 14 0 5
9 9 20 9 11 0 20 -6 20 -14z m75 -17 c0 -8 -11 -15 -25 -16 -14 -1 -19 0 -12
3 6 3 12 12 12 21 0 8 6 13 13 11 6 -3 12 -11 12 -19z m-252 -46 c-12 -8 -49
-37 -83 -64 -34 -27 -69 -49 -77 -49 -18 0 -53 28 -53 41 0 13 76 47 144 64
33 9 65 20 70 25 5 5 12 7 15 4 3 -4 -4 -13 -16 -21z m312 7 c3 -5 -1 -10 -10
-10 -9 0 -13 5 -10 10 3 6 8 10 10 10 2 0 7 -4 10 -10z m-244 -21 c11 -5 17
-14 14 -20 -8 -12 -42 -12 -67 2 -17 9 -18 13 -7 20 19 12 36 11 60 -2z m1285
-3 c83 -3 159 -8 170 -12 16 -5 17 -4 4 6 -13 9 -12 11 5 8 14 -2 20 -11 20
-28 0 -22 -32 -54 -101 -97 -15 -10 -16 -14 -6 -21 11 -7 8 -11 -10 -15 -40
-11 -48 -8 -48 21 l-1 27 -15 -28 c-15 -27 -17 -28 -92 -26 -42 1 -81 5 -87 8
-5 3 -28 4 -50 4 -39 -2 -39 -2 -12 10 35 14 30 27 -17 44 -47 16 -65 38 -66
78 l0 30 78 -1 c42 -1 145 -4 228 -8z m-1686 -46 c15 -27 -15 -40 -38 -16 -15
15 -15 18 -2 26 22 14 28 12 40 -10z m275 -99 c-3 -6 -11 -11 -16 -11 -5 0 -4
6 3 14 14 16 24 13 13 -3z m-481 -97 c3 -8 2 -12 -4 -9 -6 3 -10 10 -10 16 0
14 7 11 14 -7z m245 -88 c-2 -2 -15 -7 -29 -10 l-25 -7 25 15 c21 12 42 14 29
2z m5471 -61 c-7 -8 -22 -14 -34 -14 -20 1 -20 2 -1 6 11 3 24 9 30 14 15 14
19 10 5 -6z m-320 -110 c-13 -14 -31 -25 -39 -25 -13 1 -12 3 3 11 15 9 16 13
5 21 -10 7 -8 8 8 3 12 -3 24 -1 28 5 3 5 9 10 12 10 4 0 -4 -11 -17 -25z
m-140 -35 c0 -5 -4 -10 -10 -10 -5 0 -10 5 -10 10 0 6 5 10 10 10 6 0 10 -4
10 -10z m-47 -22 c-4 -7 -10 -31 -13 -52 -4 -34 -9 -39 -35 -42 -34 -4 -55 11
-55 38 0 14 -5 18 -16 14 -10 -4 -14 -2 -11 6 2 7 10 12 16 10 7 -1 21 2 31 8
12 6 20 7 20 1 0 -14 25 -7 44 12 20 20 31 22 19 5z m-98 -118 c3 -5 1 -10 -4
-10 -6 0 -11 5 -11 10 0 6 2 10 4 10 3 0 8 -4 11 -10z m0 -20 c22 -8 24 -12
14 -28 -7 -11 -23 -19 -41 -19 -16 0 -34 -6 -39 -14 -5 -8 -9 -9 -9 -3 0 7 -7
15 -16 18 -10 4 -13 2 -7 -7 4 -6 -6 -3 -22 7 -25 17 -42 18 -139 14 -61 -3
-133 -2 -161 2 l-50 7 43 2 c219 6 275 10 285 20 14 14 107 14 142 1z m-598
-26 c-3 -3 -12 -4 -19 -1 -8 3 -5 6 6 6 11 1 17 -2 13 -5z m-154 -11 c-7 -2
-19 -2 -25 0 -7 3 -2 5 12 5 14 0 19 -2 13 -5z m95 0 c-10 -2 -26 -2 -35 0
-10 3 -2 5 17 5 19 0 27 -2 18 -5z m-225 -10 c-13 -2 -33 -2 -45 0 -13 2 -3 4
22 4 25 0 35 -2 23 -4z m-30 -30 c-7 -2 -19 -2 -25 0 -7 3 -2 5 12 5 14 0 19
-2 13 -5z m-36 -39 c-3 -3 -12 -4 -19 -1 -8 3 -5 6 6 6 11 1 17 -2 13 -5z
m976 -46 c6 -47 4 -53 -15 -45 -9 3 -12 18 -10 46 5 53 18 53 25 -1z m-70 -5
c3 -16 1 -32 -4 -37 -10 -11 -11 -9 -13 37 -1 15 1 27 5 27 4 0 9 -12 12 -27z
m613 -26 c2 -16 -6 -17 -89 -15 -55 2 -91 7 -90 13 3 14 43 19 43 6 0 -16 39
-13 56 3 20 21 76 16 80 -7z m60 -79 c-2 -14 -10 -23 -19 -22 -10 0 -68 2
-129 3 -62 1 -107 5 -100 8 30 12 6 22 -60 26 -40 1 14 4 119 5 l193 2 -4 -22z
m-383 -5 c-7 -2 -19 -2 -25 0 -7 3 -2 5 12 5 14 0 19 -2 13 -5z m-848 -149
c32 -15 23 -14 -50 6 -28 7 -28 8 -5 9 14 0 39 -6 55 -15z m1842 -200 c-3 -3
-12 -4 -19 -1 -8 3 -5 6 6 6 11 1 17 -2 13 -5z m-1062 -154 c-3 -5 -16 -15
-28 -21 -19 -9 -19 -8 3 10 28 23 34 26 25 11z m-88 -92 c-3 -7 -5 -2 -5 12 0
14 2 19 5 13 2 -7 2 -19 0 -25z m-1347 -37 c0 -55 -8 -71 -36 -71 -2 0 -4 29
-4 65 0 58 2 65 20 65 18 0 20 -7 20 -59z m430 30 c0 -16 -3 -43 -6 -60 l-6
-31 -174 0 -174 0 0 60 0 60 180 0 180 0 0 -29z m270 -31 l0 -60 -110 0 -110
0 0 60 0 60 110 0 110 0 0 -60z m370 0 l0 -60 -159 0 -158 0 -6 53 c-2 28 -3
55 0 60 2 4 76 7 164 7 l159 0 0 -60z m148 51 l32 -1 0 -55 0 -55 -60 0 -60 0
0 59 c0 59 0 60 28 56 15 -2 42 -4 60 -4z m129 -78 c-3 -10 -5 -4 -5 12 0 17
2 24 5 18 2 -7 2 -21 0 -30z m-1347 -168 c0 -78 -2 -85 -20 -85 -18 0 -20 7
-20 85 0 78 2 85 20 85 18 0 20 -7 20 -85z m278 76 l142 -1 0 -65 0 -65 -172
2 -173 3 -3 59 c-3 63 4 75 41 71 12 -1 86 -3 165 -4z m792 -58 l0 -63 -137
-2 c-76 -1 -149 -2 -163 -2 -23 -1 -25 3 -28 53 -2 29 -1 59 1 65 3 7 56 11
166 11 l161 0 0 -62z m-372 -5 l-3 -63 -110 0 -110 0 -3 63 -3 62 116 0 116 0
-3 -62z m552 2 l0 -60 -65 0 -65 0 0 60 0 60 65 0 65 0 0 -60z m-1259 -217
c-1 -54 -4 -100 -7 -102 -2 -3 -9 0 -15 6 -15 15 -25 143 -11 143 5 0 8 9 5
21 -5 19 15 45 26 34 2 -2 3 -48 2 -102z m-686 -117 c11 -49 12 -50 59 -62 26
-7 51 -15 54 -19 4 -4 -5 -4 -20 0 -25 6 -27 4 -33 -29 -4 -20 -12 -36 -19
-37 -6 -1 -49 0 -95 1 -89 2 -119 14 -94 39 9 8 12 23 9 37 -3 12 -2 25 3 28
5 3 6 26 3 51 l-5 46 64 -3 64 -3 10 -49z m18 -186 c-12 -5 -50 -5 -85 -1
l-63 8 85 1 c58 1 78 -2 63 -8z m525 -23 c23 -24 30 -38 26 -55 -4 -12 -11
-22 -17 -22 -6 0 -7 3 -4 7 4 3 0 17 -8 30 -8 13 -22 34 -31 48 -23 35 -4 31
34 -8z m1583 -30 c9 -33 6 -35 -38 -28 -26 4 -39 12 -41 25 -9 43 68 46 79 3z
m-2158 -4 c-18 -2 -48 -2 -65 0 -18 2 -4 4 32 4 36 0 50 -2 33 -4z"/>
<path d="M634 6525 c-20 -31 -13 -43 26 -37 35 5 34 3 18 37 -14 31 -23 32
-44 0z"/>
<path d="M7400 5350 c0 -5 5 -10 10 -10 6 0 10 5 10 10 0 6 -4 10 -10 10 -5 0
-10 -4 -10 -10z"/>
<path d="M1085 4800 c-3 -5 -1 -10 4 -10 6 0 11 5 11 10 0 6 -2 10 -4 10 -3 0
-8 -4 -11 -10z"/>
<path d="M6538 4273 c7 -3 16 -2 19 1 4 3 -2 6 -13 5 -11 0 -14 -3 -6 -6z"/>
<path d="M1390 3920 c0 -5 5 -10 10 -10 6 0 10 5 10 10 0 6 -4 10 -10 10 -5 0
-10 -4 -10 -10z"/>
<path d="M2647 3710 c-3 -11 -1 -20 4 -20 5 0 9 9 9 20 0 11 -2 20 -4 20 -2 0
-6 -9 -9 -20z"/>
<path d="M3943 1603 c26 -2 67 -2 90 0 23 2 2 3 -48 3 -49 0 -68 -1 -42 -3z"/>
<path d="M7150 7671 c0 -5 12 -19 28 -31 15 -12 53 -46 84 -77 l58 -55 44 48
c49 55 47 88 -3 40 l-30 -28 -28 20 c-15 11 -44 36 -62 56 -24 25 -44 36 -63
36 -15 0 -28 -4 -28 -9z"/>
<path d="M2637 6953 c-15 -14 -5 -20 39 -20 43 0 44 1 22 13 -25 15 -51 18
-61 7z"/>
<path d="M2715 6910 c3 -5 13 -10 21 -10 8 0 12 5 9 10 -3 6 -13 10 -21 10 -8
0 -12 -4 -9 -10z"/>
<path d="M2708 6872 c-16 -9 -28 -20 -28 -24 0 -11 2 -10 44 7 27 12 41 13 57
5 24 -13 71 -3 48 10 -33 19 -94 20 -121 2z"/>
<path d="M3000 6840 c0 -12 8 -12 35 0 18 8 17 9 -7 9 -16 1 -28 -3 -28 -9z"/>
<path d="M2851 6781 c-10 -7 -8 -10 8 -16 27 -8 36 -2 18 13 -7 6 -18 7 -26 3z"/>
<path d="M2900 6756 c0 -2 7 -7 16 -10 8 -3 12 -2 9 4 -6 10 -25 14 -25 6z"/>
<path d="M2575 6730 c-16 -7 -17 -9 -3 -9 9 -1 20 4 23 9 7 11 7 11 -20 0z"/>
<path d="M2641 6724 c6 -8 25 -14 42 -14 41 0 21 22 -23 25 -25 2 -28 0 -19
-11z"/>
<path d="M5764 6697 c-50 -29 -94 -71 -94 -88 0 -13 -7 -19 -24 -19 -43 0 -77
-19 -89 -50 -11 -29 -13 -30 -77 -30 -67 0 -115 -20 -107 -43 2 -7 -10 -19
-27 -27 -18 -9 -32 -24 -34 -37 l-3 -23 228 -3 c224 -3 223 -3 -51 -4 -258 0
-280 -2 -293 -19 -20 -27 -16 -32 25 -37 31 -3 29 -4 -15 -5 -28 -1 -59 -5
-69 -9 -16 -6 -16 -7 2 -15 13 -5 6 -7 -23 -5 -24 1 -43 -1 -43 -5 0 -5 174
-9 388 -10 l387 -2 -375 -7 c-544 -9 -555 -12 -75 -20 237 -3 563 -9 725 -12
l295 -5 -255 8 c-140 5 -266 11 -280 13 -14 2 115 6 285 8 l310 3 -255 6
c-274 6 -312 11 -85 11 77 0 196 4 265 8 98 6 35 8 -285 11 -225 1 -509 6
-630 10 -142 5 -25 6 332 3 407 -3 553 -1 558 7 5 7 20 9 41 5 19 -3 34 -2 34
3 0 9 -157 29 -280 35 -35 2 -24 4 33 5 138 3 208 50 80 54 l-68 1 65 6 c135
12 -1 21 -359 23 l-356 3 342 2 c337 3 341 3 336 24 -3 12 -12 19 -22 17 -21
-4 -61 31 -54 47 7 20 -29 35 -89 36 -29 1 -43 4 -30 6 25 5 26 7 12 34 -10
17 -24 19 -173 21 l-162 2 143 3 c135 3 142 5 133 22 -17 32 -74 51 -148 51
-37 -1 -77 -6 -89 -13z m239 -124 c-7 -2 -19 -2 -25 0 -7 3 -2 5 12 5 14 0 19
-2 13 -5z m-150 -50 c-45 -2 -122 -2 -170 0 -48 1 -11 3 82 3 94 0 133 -2 88
-3z m280 -120 c-7 -2 -19 -2 -25 0 -7 3 -2 5 12 5 14 0 19 -2 13 -5z m-166 -9
c-3 -3 -12 -4 -19 -1 -8 3 -5 6 6 6 11 1 17 -2 13 -5z m90 0 c-3 -3 -12 -4
-19 -1 -8 3 -5 6 6 6 11 1 17 -2 13 -5z m261 -1 c-10 -2 -28 -2 -40 0 -13 2
-5 4 17 4 22 1 32 -1 23 -4z m-80 -20 c-32 -2 -86 -2 -120 0 -35 2 -9 3 57 3
66 0 94 -1 63 -3z m-260 -10 c-32 -2 -86 -2 -120 0 -35 2 -9 3 57 3 66 0 94
-1 63 -3z m-625 -20 c-29 -2 -77 -2 -105 0 -29 2 -6 3 52 3 58 0 81 -1 53 -3z
m530 -10 c-40 -2 -107 -2 -150 0 -43 1 -10 3 72 3 83 0 118 -2 78 -3z m395
-10 c-60 -2 -156 -2 -215 0 -60 1 -11 3 107 3 118 0 167 -2 108 -3z m-350 -50
c-16 -2 -40 -2 -55 0 -16 2 -3 4 27 4 30 0 43 -2 28 -4z"/>
<path d="M2778 6663 c7 -3 16 -2 19 1 4 3 -2 6 -13 5 -11 0 -14 -3 -6 -6z"/>
<path d="M2450 6626 c0 -9 30 -14 35 -6 4 6 -3 10 -14 10 -12 0 -21 -2 -21 -4z"/>
<path d="M2584 6568 c-4 -6 -3 -8 3 -5 6 4 19 0 29 -8 29 -22 40 -18 14 5 -26
23 -36 25 -46 8z"/>
<path d="M4484 6514 c-19 -15 -19 -15 2 -9 27 7 72 -10 102 -37 22 -22 30 -58
12 -58 -5 0 -10 -3 -10 -7 0 -5 18 -9 40 -10 22 0 47 -7 56 -13 18 -16 31 -5
16 13 -25 29 79 97 148 97 50 0 45 15 -11 30 -49 13 -97 1 -140 -34 -17 -14
-34 -26 -39 -26 -4 0 -27 16 -50 35 -46 39 -93 46 -126 19z"/>
<path d="M2633 6513 c9 -2 25 -2 35 0 9 3 1 5 -18 5 -19 0 -27 -2 -17 -5z"/>
<path d="M3626 6465 c7 -18 30 -20 40 -2 4 6 4 9 -1 5 -4 -4 -16 -3 -26 3 -15
7 -17 6 -13 -6z"/>
<path d="M2745 6440 c27 -12 43 -12 25 0 -8 5 -22 9 -30 9 -10 0 -8 -3 5 -9z"/>
<path d="M3179 6409 c-10 -6 -7 -9 12 -9 14 0 34 -7 45 -15 10 -8 33 -14 49
-13 l30 1 -27 4 c-16 3 -28 11 -28 19 0 8 -4 13 -9 10 -5 -4 -20 -2 -33 3 -15
5 -30 6 -39 0z"/>
<path d="M3715 6380 c-4 -7 2 -9 18 -5 14 4 28 2 31 -4 4 -6 13 -11 19 -11 19
1 -25 30 -44 30 -10 0 -21 -5 -24 -10z"/>
<path d="M4515 6371 c17 -11 38 -26 47 -33 15 -10 20 -9 32 7 14 19 12 20 -22
27 -20 3 -48 9 -62 13 -23 6 -23 6 5 -14z"/>
<path d="M6345 6371 c-6 -5 -19 -11 -30 -14 -11 -3 7 -4 40 -4 33 0 45 2 27 4
-18 2 -30 9 -27 14 8 12 2 12 -10 0z"/>
<path d="M6378 6373 c7 -3 16 -2 19 1 4 3 -2 6 -13 5 -11 0 -14 -3 -6 -6z"/>
<path d="M7470 6304 c-27 -26 -32 -36 -23 -45 13 -13 34 -6 78 27 19 14 19 14
0 32 -19 18 -21 18 -55 -14z"/>
<path d="M264 6309 c-3 -6 -17 -8 -30 -5 -13 4 -24 2 -24 -3 0 -12 28 -41 40
-41 7 0 40 44 40 55 0 9 -19 5 -26 -6z"/>
<path d="M3400 6290 c8 -5 22 -9 30 -9 10 0 8 3 -5 9 -27 12 -43 12 -25 0z"/>
<path d="M1723 6244 c-27 -16 -43 -32 -43 -45 0 -10 -6 -19 -14 -19 -13 0 -43
-28 -35 -32 2 -1 87 -5 189 -8 l185 -6 -211 -2 c-173 -2 -214 -5 -224 -17 -7
-8 -10 -21 -7 -29 4 -10 -7 -16 -41 -21 -80 -11 -93 -19 -42 -26 l45 -6 -42
-1 c-24 -1 -43 -6 -43 -12 0 -6 74 -11 188 -13 178 -2 175 -3 -63 -5 -140 -1
-257 -7 -265 -12 -10 -6 117 -11 370 -12 l385 -2 -382 -6 c-210 -3 -384 -7
-387 -10 -2 -3 55 -6 127 -6 73 -1 278 -3 457 -5 l325 -4 -460 -5 -460 -5 545
-2 c300 -1 565 2 590 6 39 7 32 9 -55 12 l-100 3 100 5 c88 5 95 7 55 14 -25
4 -70 9 -100 10 l-55 3 65 2 c82 3 63 21 -25 24 l-60 2 53 3 c57 4 60 7 36 30
-11 12 -48 18 -142 23 -92 5 -108 7 -55 8 66 2 71 3 66 22 -4 16 -14 20 -47
20 -22 0 -48 5 -56 10 -10 6 -11 10 -2 10 29 0 9 30 -27 41 -24 7 -41 19 -44
30 -9 33 -83 59 -172 59 -68 0 -86 -4 -122 -26z m335 -111 c-10 -2 -26 -2 -35
0 -10 3 -2 5 17 5 19 0 27 -2 18 -5z m170 -90 c-10 -2 -26 -2 -35 0 -10 3 -2
5 17 5 19 0 27 -2 18 -5z m-220 -20 c-32 -2 -84 -2 -115 0 -32 2 -6 3 57 3 63
0 89 -1 58 -3z m99 1 c-3 -3 -12 -4 -19 -1 -8 3 -5 6 6 6 11 1 17 -2 13 -5z
m96 -31 c-24 -2 -62 -2 -85 0 -24 2 -5 4 42 4 47 0 66 -2 43 -4z"/>
<path d="M4037 6243 c-14 -13 -7 -25 8 -13 8 7 22 10 30 6 9 -3 13 -2 10 4 -7
11 -38 13 -48 3z"/>
<path d="M6428 6233 c6 -2 18 -2 25 0 6 3 1 5 -13 5 -14 0 -19 -2 -12 -5z"/>
<path d="M5020 6219 c41 -8 177 -11 995 -23 154 -2 316 -1 360 3 55 4 -35 9
-290 15 -529 12 -1119 15 -1065 5z"/>
<path d="M5058 6193 c12 -2 32 -2 45 0 12 2 2 4 -23 4 -25 0 -35 -2 -22 -4z"/>
<path d="M5290 6180 c80 -4 327 -7 550 -7 263 0 363 3 285 7 -66 4 -313 7
-550 7 -300 0 -386 -3 -285 -7z"/>
<path d="M7515 6180 c-5 -7 20 -49 92 -159 1 -2 9 1 16 7 8 7 17 9 20 5 4 -3
7 -3 7 1 0 13 -110 156 -119 156 -6 0 -12 -4 -16 -10z"/>
<path d="M5413 6148 c196 -6 366 -6 440 0 97 7 33 9 -318 9 l-440 0 318 -9z"/>
<path d="M5235 6130 c-93 -4 -55 -7 165 -10 157 -3 348 -3 425 0 115 5 85 6
-165 10 -168 3 -359 3 -425 0z"/>
<path d="M5155 6101 c-4 -8 110 -11 396 -11 221 0 400 2 398 4 -2 2 -180 7
-395 11 -277 5 -394 3 -399 -4z"/>
<path d="M5290 6069 c74 -3 250 -6 390 -6 250 1 252 1 90 7 -91 4 -266 7 -390
7 -211 0 -217 -1 -90 -8z"/>
<path d="M5393 6043 c93 -2 241 -2 330 0 89 1 14 3 -168 3 -181 0 -254 -2
-162 -3z"/>
<path d="M5378 6023 c57 -2 147 -2 200 0 53 1 7 3 -103 3 -110 0 -154 -2 -97
-3z"/>
<path d="M7468 6009 c-44 -23 -47 -28 -13 -21 19 3 25 0 25 -13 0 -14 84 -258
95 -276 7 -11 99 6 103 20 4 11 -3 13 -32 8 -37 -6 -37 -6 -61 50 -14 30 -25
57 -25 59 0 1 20 16 44 32 39 27 45 28 59 15 14 -14 16 -10 16 41 0 31 -5 57
-10 57 -5 1 -13 2 -18 3 -5 0 -13 5 -18 10 -5 5 -3 6 5 2 6 -4 12 -3 12 3 0 6
8 7 18 4 14 -6 15 -4 4 9 -13 16 -35 18 -48 5 -3 -3 -1 -20 5 -38 9 -27 8 -35
-5 -50 -23 -26 -66 -34 -76 -14 -5 8 -13 13 -17 10 -5 -2 -8 6 -7 18 1 12 -3
25 -9 30 -6 5 -4 11 7 17 18 11 14 40 -6 40 -6 -1 -28 -10 -48 -21z m154 -111
c-15 -19 -72 -51 -72 -41 0 4 17 18 38 29 45 27 47 27 34 12z"/>
<path d="M2478 5933 c12 -2 32 -2 45 0 12 2 2 4 -23 4 -25 0 -35 -2 -22 -4z"/>
<path d="M1375 5909 c-22 -4 234 -7 568 -6 334 1 598 5 585 9 -33 9 -1104 7
-1153 -3z"/>
<path d="M1331 5886 c2 -2 265 -6 584 -8 319 -2 542 -1 495 3 -89 7 -1086 12
-1079 5z"/>
<path d="M7640 5883 c0 -6 8 -28 17 -49 17 -38 17 -38 21 -12 2 18 -4 35 -17
50 -12 12 -21 17 -21 11z"/>
<path d="M1540 5860 c115 -8 986 -13 979 -5 -3 2 -248 6 -545 8 -296 3 -492 1
-434 -3z"/>
<path d="M1753 5833 c115 -2 299 -2 410 0 111 1 18 2 -208 2 -225 0 -316 -1
-202 -2z"/>
<path d="M0 5482 c0 -11 56 -21 144 -28 78 -6 68 2 -19 16 -39 6 -82 13 -97
16 -16 3 -28 1 -28 -4z"/>
<path d="M2518 5423 c12 -2 30 -2 40 0 9 3 -1 5 -23 4 -22 0 -30 -2 -17 -4z"/>
<path d="M240 5136 c0 -10 16 -20 45 -27 l45 -11 0 -60 c0 -43 3 -59 13 -56 7
3 13 29 15 71 l3 66 -43 11 c-24 6 -51 13 -60 16 -12 4 -18 0 -18 -10z"/>
<path d="M6622 4748 c3 -7 13 -15 24 -17 16 -3 17 -1 5 13 -16 19 -34 21 -29
4z"/>
<path d="M1305 4730 c4 -6 11 -8 16 -5 14 9 11 15 -7 15 -8 0 -12 -5 -9 -10z"/>
<path d="M6604 4731 c4 -7 -1 -11 -13 -11 -36 0 -23 -15 14 -16 40 -1 45 10
14 27 -15 8 -19 8 -15 0z"/>
<path d="M5178 4293 c7 -3 16 -2 19 1 4 3 -2 6 -13 5 -11 0 -14 -3 -6 -6z"/>
<path d="M2260 3200 c-25 -4 212 -7 525 -7 321 0 518 4 450 7 -156 9 -917 9
-975 0z"/>
<path d="M4480 2899 c47 -4 283 -7 525 -6 l440 1 -295 6 c-410 10 -781 9 -670
-1z"/>
<path d="M5753 2873 c31 -2 83 -2 115 0 31 2 5 3 -58 3 -63 0 -89 -1 -57 -3z"/>
<path d="M5448 2853 c7 -3 16 -2 19 1 4 3 -2 6 -13 5 -11 0 -14 -3 -6 -6z"/>
<path d="M5808 2853 c7 -3 16 -2 19 1 4 3 -2 6 -13 5 -11 0 -14 -3 -6 -6z"/>
<path d="M5948 2853 c6 -2 18 -2 25 0 6 3 1 5 -13 5 -14 0 -19 -2 -12 -5z"/>
<path d="M0 2699 l0 -22 625 5 625 5 0 -23 c0 -13 -10 -49 -21 -80 -32 -84
-156 -207 -261 -259 l-77 -37 -35 22 c-20 12 -44 35 -53 51 -18 31 -43 39 -43
14 0 -9 -7 -18 -16 -22 -20 -7 -38 18 -21 29 8 5 8 11 2 16 -13 9 -35 72 -35
99 0 20 4 21 83 16 45 -3 88 -10 94 -16 9 -6 13 -6 13 0 0 6 30 13 66 16 37 3
69 9 73 14 3 6 13 13 21 16 8 3 -127 6 -301 6 -174 1 -411 4 -527 8 l-212 6 0
-81 0 -82 90 0 c59 0 101 -5 118 -14 42 -22 168 -166 292 -336 62 -85 114
-157 116 -159 1 -1 8 -1 14 1 6 2 -26 56 -70 121 -82 119 -102 172 -41 104 19
-20 38 -34 42 -31 5 3 6 -1 3 -9 -6 -16 43 -60 57 -51 5 3 9 -1 10 -8 0 -7 5
-2 10 11 11 27 -3 50 -30 52 -10 0 -12 2 -3 6 6 2 10 9 6 14 -3 5 0 9 5 9 6 0
11 7 11 15 0 29 42 12 103 -41 36 -33 48 -38 76 -34 9 1 12 -4 8 -14 -4 -9 -2
-16 4 -16 5 0 7 -11 3 -25 -7 -30 10 -55 38 -55 11 0 34 -7 51 -14 18 -8 47
-19 66 -23 44 -11 50 -29 14 -36 -48 -10 -167 0 -207 17 -56 23 -55 21 11 -27
43 -32 69 -62 98 -113 23 -38 55 -78 74 -91 l34 -23 744 0 c874 0 797 -11 863
118 44 86 58 106 80 115 12 4 11 6 -4 6 -10 1 -35 -12 -56 -29 -49 -39 -74
-47 -161 -55 l-74 -6 25 20 c13 11 27 19 30 19 3 -1 27 2 54 7 32 5 44 10 35
16 -9 6 2 9 31 10 25 1 36 4 25 6 -11 2 -59 0 -107 -5 -47 -4 -95 -5 -105 -1
-13 6 -8 8 17 8 56 2 106 19 139 50 17 16 31 33 31 38 0 4 -40 8 -89 9 -58 0
-95 5 -105 13 -22 19 -13 27 36 35 24 4 71 23 106 42 64 36 78 53 28 35 -17
-7 -43 -7 -77 -1 -29 6 -73 10 -100 10 -39 0 -47 3 -43 15 4 10 20 15 51 15
47 0 88 16 115 46 16 18 14 19 -59 21 -98 3 -107 12 -60 61 51 52 50 82 -1 46
-30 -21 -81 -12 -119 20 -30 26 -99 133 -91 142 3 3 20 -20 37 -51 17 -30 33
-55 36 -55 6 0 -52 121 -65 134 -5 5 -10 20 -10 33 0 13 -5 23 -11 23 -6 0 -8
-9 -4 -21 4 -13 1 -25 -8 -32 -7 -7 -20 -28 -27 -47 -20 -53 -66 -112 -112
-142 -48 -33 -56 -34 -87 -12 -22 16 -22 16 -19 -12 2 -22 11 -33 36 -43 17
-8 32 -19 32 -23 0 -5 -4 -7 -9 -4 -11 7 -161 -43 -161 -54 0 -15 70 -32 116
-28 50 4 62 -15 17 -27 -16 -3 -66 -18 -113 -33 -83 -25 -84 -26 -55 -38 16
-6 35 -10 42 -7 7 3 13 0 13 -7 0 -8 18 -11 57 -8 49 2 58 0 61 -14 4 -22 -26
-35 -108 -44 -63 -7 -82 -22 -61 -48 9 -11 5 -15 -20 -20 -41 -8 -147 -6 -179
4 -27 8 -25 9 45 31 52 16 137 71 126 82 -5 5 -31 4 -58 -1 -57 -10 -150 0
-120 13 10 4 45 4 77 1 52 -6 60 -5 60 10 0 11 -4 14 -12 8 -7 -5 -42 -7 -78
-4 -62 5 -64 6 -37 18 16 7 34 12 42 12 23 0 45 12 40 21 -3 4 1 24 9 44 l15
35 -27 -6 c-15 -3 -44 -10 -66 -16 -30 -7 -46 -6 -72 7 -35 16 -46 45 -19 45
9 0 35 10 58 22 23 11 66 24 96 27 51 6 56 9 88 55 18 26 33 52 33 56 0 4 -24
1 -52 -7 -64 -17 -152 -12 -199 12 -81 42 -170 157 -193 247 l-6 28 187 3 188
2 -187 3 -188 2 0 30 0 30 548 2 547 1 -425 8 c-234 4 -496 9 -582 11 -91 3
-159 0 -161 -5 -1 -5 -78 -5 -193 2 -104 6 -382 11 -617 11 l-427 0 0 -21z
m1290 -40 c0 -10 -4 -19 -9 -19 -12 0 -23 29 -15 41 8 14 24 0 24 -22z m89
-231 c22 -25 78 -71 123 -103 46 -31 72 -54 58 -50 -44 13 -124 71 -178 128
-50 53 -113 164 -112 197 1 8 16 -17 35 -56 19 -38 52 -91 74 -116z m-141 111
c-12 -22 -56 -76 -96 -119 -58 -63 -89 -87 -154 -120 -44 -22 -87 -40 -96 -40
-26 0 -2 17 56 39 30 12 70 32 90 46 54 36 149 133 184 188 38 58 47 62 16 6z
m893 -120 c-6 -18 -23 -48 -37 -66 -27 -36 -99 -93 -117 -93 -6 0 8 13 30 29
51 37 100 97 114 139 6 18 13 31 16 28 3 -3 0 -19 -6 -37z m-1502 -74 c1 6 6
2 12 -8 8 -14 8 -22 0 -30 -16 -16 -23 -3 -27 50 -3 43 -2 45 5 13 5 -19 9
-30 10 -25z m-72 -66 c76 -80 85 -96 68 -130 -24 -45 -42 -55 -67 -33 -11 11
-27 34 -35 52 -8 20 -20 32 -32 32 -10 0 -26 11 -34 24 -15 22 -15 25 -1 30 9
3 20 4 25 0 14 -8 11 10 -6 32 -19 25 -19 38 0 30 9 -3 15 0 15 9 0 8 2 15 4
15 3 0 31 -27 63 -61z m1783 -39 c-8 -5 -19 -10 -25 -10 -5 0 -3 5 5 10 8 5
20 10 25 10 6 0 3 -5 -5 -10z m-1519 -52 c2 -40 4 -48 10 -45 4 1 16 -7 28
-17 12 -11 21 -15 21 -11 0 5 15 -5 33 -22 39 -37 68 -53 98 -53 12 0 20 -3
16 -6 -10 -10 -98 6 -92 17 4 5 -11 10 -32 11 -21 1 -48 2 -60 3 -30 1 -61 31
-68 65 -5 21 -11 27 -26 23 -13 -4 -19 0 -19 11 0 9 6 13 14 10 8 -3 23 4 33
15 23 27 43 27 44 -1z m239 -17 c0 -25 -5 -29 -37 -35 -21 -3 -57 -6 -81 -6
-35 0 -44 4 -54 24 -20 45 -8 51 86 48 l86 -3 0 -28z m17 -13 c-3 -8 -6 -5 -6
6 -1 11 2 17 5 13 3 -3 4 -12 1 -19z m-112 -213 c39 -7 58 -14 43 -14 -31 -1
-169 27 -177 35 -3 4 10 3 29 -1 19 -4 67 -13 105 -20z m58 -32 c-7 -2 -21 -2
-30 0 -10 3 -4 5 12 5 17 0 24 -2 18 -5z m512 -3 c-11 -5 -128 -8 -260 -7
l-240 1 245 6 c135 3 252 6 260 7 8 1 6 -2 -5 -7z m282 -46 c-3 -3 -12 -4 -19
-1 -8 3 -5 6 6 6 11 1 17 -2 13 -5z m86 -11 c-13 -2 -33 -2 -45 0 -13 2 -3 4
22 4 25 0 35 -2 23 -4z m145 0 c-21 -2 -55 -2 -75 0 -21 2 -4 4 37 4 41 0 58
-2 38 -4z m-171 -47 c27 -14 23 -15 -79 -16 -60 0 -108 4 -108 8 0 31 133 37
187 8z"/>
<path d="M203 2633 c115 -2 299 -2 410 0 111 1 18 2 -208 2 -226 0 -316 -1
-202 -2z"/>
<path d="M883 2623 c9 -2 25 -2 35 0 9 3 1 5 -18 5 -19 0 -27 -2 -17 -5z"/>
<path d="M7378 2623 c12 -2 32 -2 45 0 12 2 2 4 -23 4 -25 0 -35 -2 -22 -4z"/>
<path d="M7497 2623 c18 -2 50 -2 70 0 21 2 7 4 -32 4 -38 0 -55 -2 -38 -4z"/>
<path d="M1748 2153 c7 -3 16 -2 19 1 4 3 -2 6 -13 5 -11 0 -14 -3 -6 -6z"/>
<path d="M6973 2083 c9 -2 25 -2 35 0 9 3 1 5 -18 5 -19 0 -27 -2 -17 -5z"/>
<path d="M656 2031 c-4 -7 -5 -15 -2 -18 9 -9 19 4 14 18 -4 11 -6 11 -12 0z"/>
<path d="M7067 1939 c-27 -33 -63 -69 -80 -80 -31 -18 -31 -19 -7 -19 16 0 42
19 82 60 32 33 65 60 74 60 18 0 60 -26 91 -57 17 -18 32 -23 65 -21 41 1 41
1 8 5 -25 3 -50 19 -92 59 -31 30 -65 54 -75 53 -10 0 -40 -27 -66 -60z"/>
<path d="M4588 1873 c7 -3 16 -2 19 1 4 3 -2 6 -13 5 -11 0 -14 -3 -6 -6z"/>
<path d="M6833 1813 c20 -2 54 -2 75 0 20 2 3 4 -38 4 -41 0 -58 -2 -37 -4z"/>
<path d="M4368 1793 c7 -3 16 -2 19 1 4 3 -2 6 -13 5 -11 0 -14 -3 -6 -6z"/>
<path d="M4368 1623 c6 -2 18 -2 25 0 6 3 1 5 -13 5 -14 0 -19 -2 -12 -5z"/>
<path d="M6690 1574 l-285 -12 480 5 c264 2 505 8 535 12 88 13 -409 9 -730
-5z"/>
<path d="M273 1573 c75 -2 199 -2 275 0 75 1 13 3 -138 3 -151 0 -213 -2 -137
-3z"/>
<path d="M6210 1418 c0 -5 80 -7 178 -6 178 2 157 6 -61 10 -64 2 -117 0 -117
-4z"/>
<path d="M1595 1409 c228 -7 1622 -12 1614 -5 -2 2 -416 5 -919 8 -503 2 -816
1 -695 -3z"/>
<path d="M3463 1393 c15 -2 39 -2 55 0 15 2 2 4 -28 4 -30 0 -43 -2 -27 -4z"/>
<path d="M6448 1333 c94 -2 250 -2 345 0 94 1 17 3 -173 3 -190 0 -267 -2
-172 -3z"/>
<path d="M5364 1312 c-786 -2 -903 -4 -914 -17 -11 -13 94 -15 919 -15 591 0
931 4 931 10 0 5 -8 13 -17 17 -10 4 -424 7 -919 5z"/>
<path d="M1478 1243 c199 -2 525 -2 725 0 199 1 36 2 -363 2 -399 0 -562 -1
-362 -2z"/>
<path d="M4428 1233 c-5 -17 45 -18 955 -15 529 1 963 4 965 7 23 23 -62 25
-962 25 -900 0 -954 -1 -958 -17z"/>
<path d="M2798 1233 c46 -2 118 -2 160 0 42 1 5 3 -83 3 -88 0 -123 -2 -77 -3z"/>
<path d="M6198 1195 c-2 -3 -590 -5 -1306 -5 -815 -1 -1302 -5 -1302 -11 0 -5
-15 -10 -32 -10 -28 -2 -29 -2 -8 -6 38 -7 51 -22 39 -44 -9 -18 -28 -19 -402
-21 l-392 -3 395 -5 395 -5 0 -27 c1 -15 4 -30 7 -34 4 -3 4 -12 1 -20 -4 -11
-50 -14 -247 -16 l-241 -3 238 -2 c145 -2 238 -7 239 -13 5 -34 3 -35 -132
-40 l-135 -6 137 -2 c78 -1 139 -6 143 -12 7 -12 390 -13 818 -3 270 6 287 7
287 25 0 14 -8 18 -34 18 -19 0 -36 -6 -39 -12 -3 -10 -41 -12 -158 -8 -151 5
-153 5 -152 28 0 12 1 42 2 65 l1 44 163 7 c89 3 743 7 1452 8 983 1 1193 4
881 9 -341 7 -411 10 -425 23 -14 13 -149 15 -1066 18 -578 1 -1042 4 -1032 6
9 2 17 10 17 18 0 10 14 14 54 14 30 0 57 -3 59 -7 3 -5 20 -8 39 -7 18 1 457
2 976 2 798 2 942 4 942 16 0 8 -7 17 -16 20 -19 7 -159 8 -166 1z m-1778 -79
c0 -27 -16 -36 -66 -36 -52 0 -54 1 -44 20 8 16 21 20 60 20 28 0 50 -2 50 -4z"/>
<path d="M1207 1183 c18 -2 50 -2 70 0 21 2 7 4 -32 4 -38 0 -55 -2 -38 -4z"/>
<path d="M1563 1173 c93 -2 241 -2 330 0 89 1 14 3 -168 3 -181 0 -254 -2
-162 -3z"/>
<path d="M6433 1173 c26 -2 67 -2 90 0 23 2 2 3 -48 3 -49 0 -68 -1 -42 -3z"/>
<path d="M2398 1163 c133 -2 351 -2 485 0 133 1 24 2 -243 2 -267 0 -376 -1
-242 -2z"/>
<path d="M3378 1163 c29 -2 74 -2 100 0 26 2 2 3 -53 3 -55 0 -76 -1 -47 -3z"/>
<path d="M500 1080 c-47 -3 151 -4 440 -2 289 3 527 6 529 8 7 6 -877 1 -969
-6z"/>
<path d="M4620 1021 c0 -12 7 -21 15 -22 55 -4 60 -3 60 16 0 16 -8 21 -37 23
-33 3 -38 0 -38 -17z"/>
<path d="M4737 1021 c-4 -18 -1 -21 30 -21 27 0 34 4 31 18 -5 26 -54 29 -61
3z"/>
<path d="M5846 1015 c-4 -13 9 -15 89 -15 78 0 95 3 95 15 0 12 -17 15 -89 15
-70 0 -90 -3 -95 -15z"/>
<path d="M1745 1009 c182 -3 452 -6 600 -6 l270 1 -345 6 c-190 4 -460 7 -600
7 l-255 -1 330 -7z"/>
<path d="M4425 1009 c32 -10 161 -6 172 4 3 4 -41 7 -98 6 -79 -1 -97 -3 -74
-10z"/>
<path d="M6228 1013 c39 -2 105 -2 145 0 39 1 7 3 -73 3 -80 0 -112 -2 -72 -3z"/>
<path d="M5207 1003 c94 -2 252 -2 350 0 98 1 21 2 -172 2 -192 1 -273 -1
-178 -2z"/>
<path d="M2773 993 c37 -2 97 -2 135 0 37 2 6 3 -68 3 -74 0 -105 -1 -67 -3z"/>
<path d="M4733 931 c-12 -19 0 -19 610 -25 342 -3 768 -7 947 -9 l325 -3 -295
5 -295 6 -3 23 c-3 21 -8 22 -81 22 -42 0 -81 -4 -86 -9 -6 -6 -230 -11 -533
-13 -413 -2 -522 0 -522 10 0 20 -54 14 -67 -7z"/>
<path d="M2318 923 c133 -2 351 -2 485 0 133 1 24 2 -243 2 -267 0 -376 -1
-242 -2z"/>
<path d="M3556 853 c-4 -4 -428 -10 -944 -13 l-937 -6 927 0 928 1 6 -45 c11
-79 12 -79 127 -83 l102 -3 -109 -2 -108 -2 7 -37 c4 -21 8 -39 9 -40 1 -1
157 -3 346 -3 338 -1 345 -1 354 19 9 21 14 21 775 24 l766 2 -766 3 c-748 2
-767 2 -772 21 -3 14 -16 21 -43 24 -39 4 -39 4 7 5 l45 2 10 53 9 52 197 0
c109 1 200 4 203 7 3 3 22 2 42 -2 39 -9 66 -3 60 13 -4 13 -111 14 -328 3
-111 -6 -159 -5 -163 3 -8 12 -737 16 -750 4z"/>
<path d="M5387 843 c18 -2 50 -2 70 0 21 2 7 4 -32 4 -38 0 -55 -2 -38 -4z"/>
<path d="M5560 839 c25 -6 99 -10 165 -9 66 0 158 -1 204 -2 60 -2 85 1 88 10
4 9 -50 12 -249 11 -184 -1 -241 -4 -208 -10z"/>
<path d="M4639 777 c4 -4 41 -7 82 -5 l74 3 -82 5 c-45 3 -78 1 -74 -3z"/>
<path d="M5435 760 l-480 -5 465 -5 c542 -5 510 -6 845 7 l260 10 -305 -1
c-168 -1 -521 -3 -785 -6z"/>
<path d="M1093 753 c75 -2 199 -2 275 0 75 1 13 3 -138 3 -151 0 -213 -2 -137
-3z"/>
<path d="M1778 753 c56 -2 148 -2 205 0 56 1 10 3 -103 3 -113 0 -159 -2 -102
-3z"/>
<path d="M2418 753 c28 -2 76 -2 105 0 28 2 5 3 -53 3 -58 0 -81 -1 -52 -3z"/>
<path d="M4645 750 c-42 -6 -34 -7 48 -8 59 -1 97 2 97 8 0 11 -66 11 -145 0z"/>
<path d="M2983 743 c104 -2 270 -2 370 0 100 1 16 2 -188 2 -203 0 -285 -1
-182 -2z"/>
<path d="M4823 743 c15 -2 37 -2 50 0 12 2 0 4 -28 4 -27 0 -38 -2 -22 -4z"/>
<path d="M1773 673 c130 -2 344 -2 475 0 130 1 23 2 -238 2 -261 0 -368 -1
-237 -2z"/>
<path d="M6118 673 c67 -2 177 -2 245 0 67 1 12 3 -123 3 -135 0 -190 -2 -122
-3z"/>
<path d="M2863 663 c125 -2 329 -2 455 0 125 1 22 2 -228 2 -250 0 -353 -1
-227 -2z"/>
<path d="M3567 593 c-4 -3 -2 -12 4 -20 17 -20 689 -19 689 1 0 8 -7 17 -16
20 -21 8 -669 8 -677 -1z"/>
<path d="M3408 583 c29 -2 74 -2 100 0 26 2 2 3 -53 3 -55 0 -76 -1 -47 -3z"/>
<path d="M3585 510 c-3 -5 -1 -19 5 -30 11 -20 17 -20 323 -14 172 3 318 7
325 10 6 2 12 13 12 24 0 20 -5 20 -329 20 -205 0 -332 -4 -336 -10z"/>
<path d="M3373 503 c9 -2 23 -2 30 0 6 3 -1 5 -18 5 -16 0 -22 -2 -12 -5z"/>
<path d="M3467 503 c18 -2 50 -2 70 0 21 2 7 4 -32 4 -38 0 -55 -2 -38 -4z"/>
<path d="M2813 493 c97 -2 257 -2 355 0 97 1 17 2 -178 2 -195 0 -275 -1 -177
-2z"/>
<path d="M4898 493 c12 -2 32 -2 45 0 12 2 2 4 -23 4 -25 0 -35 -2 -22 -4z"/>
<path d="M5058 493 c12 -2 32 -2 45 0 12 2 2 4 -23 4 -25 0 -35 -2 -22 -4z"/>
<path d="M2483 483 c20 -2 54 -2 75 0 20 2 3 4 -38 4 -41 0 -58 -2 -37 -4z"/>
<path d="M3752 442 c-152 -2 -153 -3 -150 -25 4 -31 30 -34 293 -36 287 -1
332 3 338 34 3 21 -1 24 -49 30 -29 3 -104 5 -166 3 -62 -2 -182 -4 -266 -6z"/>
</g>
</svg>
